<?xml version="1.0" encoding="UTF-8"?>
<svg xmlns="http://www.w3.org/2000/svg" width="297.0mm" height="210.0mm" viewBox="0 0 891 630">
<!-- Bambu Lab Modullampe – Uebersicht -->
<rect width="891" height="630" fill="#f8f5ef"/>
<defs>
  <pattern id="pl" x="0" y="0" width="9" height="9"
           patternUnits="userSpaceOnUse">
    <rect width="9" height="9" fill="#d4c8b0"/>
    <line x1="0" y1="9" x2="9" y2="0"
          stroke="#bfb09a" stroke-width="0.6" opacity="0.6"/>
  </pattern>
  <pattern id="hol" x="0" y="0" width="9" height="9"
           patternUnits="userSpaceOnUse">
    <rect width="9" height="9" fill="#e8e4dc"/>
  </pattern>
</defs>
<rect x="12.0" y="12.0" width="867.0" height="606.0" fill="none" stroke="#151208" stroke-width="1" rx="0"/>
<text x="445.5" y="39.0" font-size="14" text-anchor="middle" font-weight="bold" fill="#151208" font-family="Arial,Helvetica,sans-serif">BAMBU LAB MODULLAMPE  –  BAUHAUS STIL</text>
<text x="445.5" y="60.0" font-size="8" text-anchor="middle" font-weight="normal" fill="#50483c" font-family="Arial,Helvetica,sans-serif">6 Bajonett-Elemente  |  Bambu Lab P1S / P2S  |  IKEA STRALA E14</text>
<line x1="15.0" y1="69.0" x2="876.0" y2="69.0" stroke="#151208" stroke-width="0.8"/>
<rect x="18.0" y="81.0" width="240.0" height="222.0" fill="#ffffff" stroke="#bbb" stroke-width="0.5" rx="4.5"/>
<rect x="39.0" y="177.6" width="198.0" height="52.8" fill="url(#pl)" stroke="#7a6a50" stroke-width="1.8" rx="0"/>
<rect x="39.0" y="213.9" width="198.0" height="16.5" fill="#303030" stroke="#7a6a50" stroke-width="0.8" rx="3.3000000000000003"/>
<rect x="101.7" y="177.6" width="72.6" height="52.8" fill="url(#hol)" stroke="#7a6a50" stroke-width="0.7" rx="0"/>
<rect x="90.2" y="171.0" width="95.7" height="6.6" fill="url(#pl)" stroke="#7a6a50" stroke-width="1.2" rx="0"/>
<rect x="101.7" y="171.0" width="72.6" height="6.6" fill="url(#hol)" stroke="#7a6a50" stroke-width="0.7" rx="0"/>
<rect x="110.0" y="171.0" width="8.2" height="4.1" fill="#7a6a50" stroke="#7a6a50" stroke-width="0.3" rx="0"/>
<rect x="157.8" y="171.0" width="8.2" height="4.1" fill="#7a6a50" stroke="#7a6a50" stroke-width="0.3" rx="0"/>
<line x1="138.0" y1="153.0" x2="138.0" y2="248.4" stroke="#b01010" stroke-width="0.5" stroke-dasharray="5,2.5,1.5,2.5"/>
<line x1="39.0" y1="253.5" x2="237.0" y2="253.5" stroke="#b01010" stroke-width="0.6"/>
<line x1="39.0" y1="247.5" x2="39.0" y2="259.5" stroke="#b01010" stroke-width="0.6"/>
<line x1="237.0" y1="247.5" x2="237.0" y2="259.5" stroke="#b01010" stroke-width="0.6"/>
<text x="138.0" y="275.1" font-size="7" text-anchor="middle" font-weight="normal" fill="#b01010" font-family="Courier New,Courier,monospace">120 mm</text>
<line x1="101.7" y1="151.2" x2="174.3" y2="151.2" stroke="#b01010" stroke-width="0.6"/>
<line x1="101.7" y1="145.2" x2="101.7" y2="157.2" stroke="#b01010" stroke-width="0.6"/>
<line x1="174.3" y1="145.2" x2="174.3" y2="157.2" stroke="#b01010" stroke-width="0.6"/>
<text x="138.0" y="141.6" font-size="7" text-anchor="middle" font-weight="normal" fill="#b01010" font-family="Courier New,Courier,monospace">Kanal 44 mm</text>
<line x1="15.9" y1="177.6" x2="15.9" y2="230.4" stroke="#b01010" stroke-width="0.6"/>
<line x1="9.9" y1="177.6" x2="21.9" y2="177.6" stroke="#b01010" stroke-width="0.6"/>
<line x1="9.9" y1="230.4" x2="21.9" y2="230.4" stroke="#b01010" stroke-width="0.6"/>
<text x="9.3" y="210.0" font-size="7" text-anchor="end" font-weight="normal" fill="#b01010" font-family="Courier New,Courier,monospace">32 mm</text>
<line x1="25.8" y1="213.9" x2="25.8" y2="230.4" stroke="#b01010" stroke-width="0.6"/>
<line x1="19.8" y1="213.9" x2="31.8" y2="213.9" stroke="#b01010" stroke-width="0.6"/>
<line x1="19.8" y1="230.4" x2="31.8" y2="230.4" stroke="#b01010" stroke-width="0.6"/>
<text x="22.5" y="228.2" font-size="7" text-anchor="end" font-weight="normal" fill="#b01010" font-family="Courier New,Courier,monospace">10 mm</text>
<text x="138.0" y="99.0" font-size="7.5" text-anchor="middle" font-weight="bold" fill="#151208" font-family="Arial,Helvetica,sans-serif">A: Fuss 1</text>
<text x="138.0" y="117.0" font-size="6" text-anchor="middle" font-weight="normal" fill="#50483c" font-family="Arial,Helvetica,sans-serif">Scheiben-Basis 120mm</text>
<rect x="264.0" y="81.0" width="240.0" height="222.0" fill="#ffffff" stroke="#bbb" stroke-width="0.5" rx="4.5"/>
<path d="M 336.1,158.6 L 431.9,158.6 L 499.5,249.4 L 268.5,249.4 Z" fill="url(#pl)" stroke="#7a6a50" stroke-width="1.8"/>
<path d="M 347.7,158.6 L 420.3,158.6 L 420.3,249.4 L 347.7,249.4 Z" fill="url(#hol)" stroke="#7a6a50" stroke-width="0.7"/>
<line x1="268.5" y1="249.4" x2="499.5" y2="249.4" stroke="#7a6a50" stroke-width="2"/>
<circle cx="288.3" cy="257.6" r="8.2" fill="#303030" stroke="#7a6a50" stroke-width="0.8"/>
<circle cx="479.7" cy="257.6" r="8.2" fill="#303030" stroke="#7a6a50" stroke-width="0.8"/>
<rect x="336.1" y="152.0" width="95.7" height="6.6" fill="url(#pl)" stroke="#7a6a50" stroke-width="1.2" rx="0"/>
<rect x="347.7" y="152.0" width="72.6" height="6.6" fill="url(#hol)" stroke="#7a6a50" stroke-width="0.7" rx="0"/>
<rect x="355.9" y="152.0" width="8.2" height="4.1" fill="#7a6a50" stroke="#7a6a50" stroke-width="0.3" rx="0"/>
<rect x="403.8" y="152.0" width="8.2" height="4.1" fill="#7a6a50" stroke="#7a6a50" stroke-width="0.3" rx="0"/>
<line x1="384.0" y1="134.0" x2="384.0" y2="277.3" stroke="#b01010" stroke-width="0.5" stroke-dasharray="5,2.5,1.5,2.5"/>
<line x1="268.5" y1="275.8" x2="499.5" y2="275.8" stroke="#b01010" stroke-width="0.6"/>
<line x1="268.5" y1="269.8" x2="268.5" y2="281.8" stroke="#b01010" stroke-width="0.6"/>
<line x1="499.5" y1="269.8" x2="499.5" y2="281.8" stroke="#b01010" stroke-width="0.6"/>
<text x="384.0" y="297.4" font-size="7" text-anchor="middle" font-weight="normal" fill="#b01010" font-family="Courier New,Courier,monospace">140 mm</text>
<line x1="336.1" y1="132.2" x2="431.9" y2="132.2" stroke="#b01010" stroke-width="0.6"/>
<line x1="336.1" y1="126.2" x2="336.1" y2="138.2" stroke="#b01010" stroke-width="0.6"/>
<line x1="431.9" y1="126.2" x2="431.9" y2="138.2" stroke="#b01010" stroke-width="0.6"/>
<text x="384.0" y="122.6" font-size="7" text-anchor="middle" font-weight="normal" fill="#b01010" font-family="Courier New,Courier,monospace">58 mm</text>
<line x1="522.6" y1="158.6" x2="522.6" y2="249.4" stroke="#b01010" stroke-width="0.6"/>
<line x1="516.6" y1="158.6" x2="528.6" y2="158.6" stroke="#b01010" stroke-width="0.6"/>
<line x1="516.6" y1="249.4" x2="528.6" y2="249.4" stroke="#b01010" stroke-width="0.6"/>
<text x="529.2" y="210.0" font-size="7" text-anchor="start" font-weight="normal" fill="#b01010" font-family="Courier New,Courier,monospace">55 mm</text>
<text x="384.0" y="99.0" font-size="7.5" text-anchor="middle" font-weight="bold" fill="#151208" font-family="Arial,Helvetica,sans-serif">B: Fuss 2</text>
<text x="384.0" y="117.0" font-size="6" text-anchor="middle" font-weight="normal" fill="#50483c" font-family="Arial,Helvetica,sans-serif">Konus-Basis 140mm</text>
<rect x="510.0" y="81.0" width="240.0" height="222.0" fill="#ffffff" stroke="#bbb" stroke-width="0.5" rx="4.5"/>
<rect x="481.5" y="183.4" width="297.0" height="41.2" fill="url(#pl)" stroke="#7a6a50" stroke-width="1.8" rx="0"/>
<rect x="593.7" y="183.4" width="72.6" height="41.2" fill="url(#hol)" stroke="#7a6a50" stroke-width="0.7" rx="0"/>
<rect x="582.1" y="176.8" width="95.7" height="6.6" fill="url(#pl)" stroke="#7a6a50" stroke-width="1.2" rx="0"/>
<rect x="593.7" y="176.8" width="72.6" height="6.6" fill="url(#hol)" stroke="#7a6a50" stroke-width="0.7" rx="0"/>
<rect x="602.0" y="176.8" width="8.2" height="4.1" fill="#7a6a50" stroke="#7a6a50" stroke-width="0.3" rx="0"/>
<rect x="649.8" y="176.8" width="8.2" height="4.1" fill="#7a6a50" stroke="#7a6a50" stroke-width="0.3" rx="0"/>
<rect x="582.1" y="224.6" width="95.7" height="6.6" fill="url(#pl)" stroke="#7a6a50" stroke-width="1.2" rx="0"/>
<rect x="593.7" y="224.6" width="72.6" height="6.6" fill="url(#hol)" stroke="#7a6a50" stroke-width="0.7" rx="0"/>
<rect x="602.0" y="224.6" width="8.2" height="6.6" fill="#e8e4dc" stroke="#7a6a50" stroke-width="0.3" rx="0"/>
<rect x="649.8" y="224.6" width="8.2" height="6.6" fill="#e8e4dc" stroke="#7a6a50" stroke-width="0.3" rx="0"/>
<line x1="630.0" y1="158.8" x2="630.0" y2="249.2" stroke="#b01010" stroke-width="0.5" stroke-dasharray="5,2.5,1.5,2.5"/>
<line x1="481.5" y1="254.3" x2="778.5" y2="254.3" stroke="#b01010" stroke-width="0.6"/>
<line x1="481.5" y1="248.3" x2="481.5" y2="260.3" stroke="#b01010" stroke-width="0.6"/>
<line x1="778.5" y1="248.3" x2="778.5" y2="260.3" stroke="#b01010" stroke-width="0.6"/>
<text x="630.0" y="275.9" font-size="7" text-anchor="middle" font-weight="normal" fill="#b01010" font-family="Courier New,Courier,monospace">180 mm</text>
<line x1="593.7" y1="157.0" x2="666.3" y2="157.0" stroke="#b01010" stroke-width="0.6"/>
<line x1="593.7" y1="151.0" x2="593.7" y2="163.0" stroke="#b01010" stroke-width="0.6"/>
<line x1="666.3" y1="151.0" x2="666.3" y2="163.0" stroke="#b01010" stroke-width="0.6"/>
<text x="630.0" y="147.4" font-size="7" text-anchor="middle" font-weight="normal" fill="#b01010" font-family="Courier New,Courier,monospace">Kanal 44 mm</text>
<line x1="458.4" y1="183.4" x2="458.4" y2="224.6" stroke="#b01010" stroke-width="0.6"/>
<line x1="452.4" y1="183.4" x2="464.4" y2="183.4" stroke="#b01010" stroke-width="0.6"/>
<line x1="452.4" y1="224.6" x2="464.4" y2="224.6" stroke="#b01010" stroke-width="0.6"/>
<text x="451.8" y="210.0" font-size="7" text-anchor="end" font-weight="normal" fill="#b01010" font-family="Courier New,Courier,monospace">25 mm</text>
<text x="811.5" y="180.1" font-size="7" text-anchor="start" font-weight="normal" fill="#1a4a80" font-family="Arial,Helvetica,sans-serif">M (Stecker)</text>
<text x="811.5" y="227.9" font-size="7" text-anchor="start" font-weight="normal" fill="#1a4a80" font-family="Arial,Helvetica,sans-serif">F (Buchse)</text>
<text x="630.0" y="99.0" font-size="7.5" text-anchor="middle" font-weight="bold" fill="#151208" font-family="Arial,Helvetica,sans-serif">C: Schirm 1</text>
<text x="630.0" y="117.0" font-size="6" text-anchor="middle" font-weight="normal" fill="#50483c" font-family="Arial,Helvetica,sans-serif">Bauhaus-Disc 180mm</text>
<rect x="18.0" y="309.0" width="240.0" height="222.0" fill="#ffffff" stroke="#bbb" stroke-width="0.5" rx="4.5"/>
<path d="M 90.2,370.1 L 185.8,370.1 L 303.0,493.9 L -27.0,493.9 Z" fill="url(#pl)" stroke="#7a6a50" stroke-width="1.8"/>
<path d="M 101.7,370.1 L 174.3,370.1 L 174.3,493.9 L 101.7,493.9 Z" fill="url(#hol)" stroke="#7a6a50" stroke-width="0.7"/>
<line x1="-27.0" y1="493.9" x2="303.0" y2="493.9" stroke="#7a6a50" stroke-width="2"/>
<rect x="90.2" y="363.5" width="95.7" height="6.6" fill="url(#pl)" stroke="#7a6a50" stroke-width="1.2" rx="0"/>
<rect x="101.7" y="363.5" width="72.6" height="6.6" fill="url(#hol)" stroke="#7a6a50" stroke-width="0.7" rx="0"/>
<rect x="110.0" y="363.5" width="8.2" height="4.1" fill="#7a6a50" stroke="#7a6a50" stroke-width="0.3" rx="0"/>
<rect x="157.8" y="363.5" width="8.2" height="4.1" fill="#7a6a50" stroke="#7a6a50" stroke-width="0.3" rx="0"/>
<line x1="138.0" y1="345.5" x2="138.0" y2="518.5" stroke="#b01010" stroke-width="0.5" stroke-dasharray="5,2.5,1.5,2.5"/>
<line x1="-27.0" y1="517.0" x2="303.0" y2="517.0" stroke="#b01010" stroke-width="0.6"/>
<line x1="-27.0" y1="511.0" x2="-27.0" y2="523.0" stroke="#b01010" stroke-width="0.6"/>
<line x1="303.0" y1="511.0" x2="303.0" y2="523.0" stroke="#b01010" stroke-width="0.6"/>
<text x="138.0" y="538.6" font-size="7" text-anchor="middle" font-weight="normal" fill="#b01010" font-family="Courier New,Courier,monospace">200 mm</text>
<line x1="90.2" y1="343.7" x2="185.8" y2="343.7" stroke="#b01010" stroke-width="0.6"/>
<line x1="90.2" y1="337.7" x2="90.2" y2="349.7" stroke="#b01010" stroke-width="0.6"/>
<line x1="185.8" y1="337.7" x2="185.8" y2="349.7" stroke="#b01010" stroke-width="0.6"/>
<text x="138.0" y="334.1" font-size="7" text-anchor="middle" font-weight="normal" fill="#b01010" font-family="Courier New,Courier,monospace">58 mm</text>
<line x1="329.4" y1="370.1" x2="329.4" y2="493.9" stroke="#b01010" stroke-width="0.6"/>
<line x1="323.4" y1="370.1" x2="335.4" y2="370.1" stroke="#b01010" stroke-width="0.6"/>
<line x1="323.4" y1="493.9" x2="335.4" y2="493.9" stroke="#b01010" stroke-width="0.6"/>
<text x="336.0" y="438.0" font-size="7" text-anchor="start" font-weight="normal" fill="#b01010" font-family="Courier New,Courier,monospace">75 mm</text>
<text x="138.0" y="536.8" font-size="7" text-anchor="middle" font-weight="normal" fill="#50483c" font-family="Arial,Helvetica,sans-serif">offen (Licht nach unten)</text>
<text x="138.0" y="327.0" font-size="7.5" text-anchor="middle" font-weight="bold" fill="#151208" font-family="Arial,Helvetica,sans-serif">D: Schirm 2</text>
<text x="138.0" y="345.0" font-size="6" text-anchor="middle" font-weight="normal" fill="#50483c" font-family="Arial,Helvetica,sans-serif">Konus 200mm</text>
<rect x="264.0" y="309.0" width="240.0" height="222.0" fill="#ffffff" stroke="#bbb" stroke-width="0.5" rx="4.5"/>
<path d="M 336.1,481.5 L 227.2,456.8 A 156.8 74.3 0 0 1 540.8,456.8 L 431.9,481.5 Z" fill="url(#pl)" stroke="#7a6a50" stroke-width="1.8"/>
<rect x="347.7" y="456.8" width="72.6" height="24.8" fill="url(#hol)" stroke="#7a6a50" stroke-width="0.7" rx="0"/>
<path d="M 347.7,481.5 L 347.7,456.8 A 36.3 22.3 0 0 1 420.3,456.8 L 420.3,481.5 Z" fill="url(#hol)" stroke="#7a6a50" stroke-width="0.7"/>
<rect x="336.1" y="481.5" width="95.7" height="6.6" fill="url(#pl)" stroke="#7a6a50" stroke-width="1.2" rx="0"/>
<rect x="347.7" y="481.5" width="72.6" height="6.6" fill="url(#hol)" stroke="#7a6a50" stroke-width="0.7" rx="0"/>
<rect x="355.9" y="481.5" width="8.2" height="6.6" fill="#e8e4dc" stroke="#7a6a50" stroke-width="0.3" rx="0"/>
<rect x="403.8" y="481.5" width="8.2" height="6.6" fill="#e8e4dc" stroke="#7a6a50" stroke-width="0.3" rx="0"/>
<line x1="384.0" y1="357.9" x2="384.0" y2="506.1" stroke="#b01010" stroke-width="0.5" stroke-dasharray="5,2.5,1.5,2.5"/>
<line x1="227.2" y1="469.9" x2="540.8" y2="469.9" stroke="#b01010" stroke-width="0.6"/>
<line x1="227.2" y1="463.9" x2="227.2" y2="475.9" stroke="#b01010" stroke-width="0.6"/>
<line x1="540.8" y1="463.9" x2="540.8" y2="475.9" stroke="#b01010" stroke-width="0.6"/>
<text x="384.0" y="489.9" font-size="7" text-anchor="middle" font-weight="normal" fill="#b01010" font-family="Courier New,Courier,monospace">190 mm</text>
<line x1="336.1" y1="507.9" x2="431.9" y2="507.9" stroke="#b01010" stroke-width="0.6"/>
<line x1="336.1" y1="501.9" x2="336.1" y2="513.9" stroke="#b01010" stroke-width="0.6"/>
<line x1="431.9" y1="501.9" x2="431.9" y2="513.9" stroke="#b01010" stroke-width="0.6"/>
<text x="384.0" y="529.5" font-size="7" text-anchor="middle" font-weight="normal" fill="#b01010" font-family="Courier New,Courier,monospace">58 mm</text>
<line x1="567.1" y1="382.5" x2="567.1" y2="481.5" stroke="#b01010" stroke-width="0.6"/>
<line x1="561.1" y1="382.5" x2="573.1" y2="382.5" stroke="#b01010" stroke-width="0.6"/>
<line x1="561.1" y1="481.5" x2="573.1" y2="481.5" stroke="#b01010" stroke-width="0.6"/>
<text x="573.8" y="438.0" font-size="7" text-anchor="start" font-weight="normal" fill="#b01010" font-family="Courier New,Courier,monospace">60 mm</text>
<line x1="204.2" y1="456.8" x2="204.2" y2="481.5" stroke="#b01010" stroke-width="0.6"/>
<line x1="198.2" y1="456.8" x2="210.2" y2="456.8" stroke="#b01010" stroke-width="0.6"/>
<line x1="198.2" y1="481.5" x2="210.2" y2="481.5" stroke="#b01010" stroke-width="0.6"/>
<text x="197.6" y="475.1" font-size="7" text-anchor="end" font-weight="normal" fill="#b01010" font-family="Courier New,Courier,monospace">15 mm</text>
<text x="384.0" y="369.3" font-size="7" text-anchor="middle" font-weight="normal" fill="#1a4a80" font-family="Arial,Helvetica,sans-serif">Licht nach oben / Ambient</text>
<text x="384.0" y="327.0" font-size="7.5" text-anchor="middle" font-weight="bold" fill="#151208" font-family="Arial,Helvetica,sans-serif">E: Schirm 3</text>
<text x="384.0" y="345.0" font-size="6" text-anchor="middle" font-weight="normal" fill="#50483c" font-family="Arial,Helvetica,sans-serif">Dom-Schirm 190mm</text>
<rect x="510.0" y="309.0" width="240.0" height="222.0" fill="#ffffff" stroke="#bbb" stroke-width="0.5" rx="4.5"/>
<rect x="582.1" y="349.5" width="95.7" height="165.0" fill="url(#pl)" stroke="#7a6a50" stroke-width="1.8" rx="0"/>
<rect x="593.7" y="349.5" width="72.6" height="165.0" fill="url(#hol)" stroke="#7a6a50" stroke-width="0.7" rx="0"/>
<rect x="582.1" y="342.9" width="95.7" height="6.6" fill="url(#pl)" stroke="#7a6a50" stroke-width="1.2" rx="0"/>
<rect x="593.7" y="342.9" width="72.6" height="6.6" fill="url(#hol)" stroke="#7a6a50" stroke-width="0.7" rx="0"/>
<rect x="602.0" y="342.9" width="8.2" height="4.1" fill="#7a6a50" stroke="#7a6a50" stroke-width="0.3" rx="0"/>
<rect x="649.8" y="342.9" width="8.2" height="4.1" fill="#7a6a50" stroke="#7a6a50" stroke-width="0.3" rx="0"/>
<rect x="582.1" y="514.5" width="95.7" height="6.6" fill="url(#pl)" stroke="#7a6a50" stroke-width="1.2" rx="0"/>
<rect x="593.7" y="514.5" width="72.6" height="6.6" fill="url(#hol)" stroke="#7a6a50" stroke-width="0.7" rx="0"/>
<rect x="602.0" y="514.5" width="8.2" height="6.6" fill="#e8e4dc" stroke="#7a6a50" stroke-width="0.3" rx="0"/>
<rect x="649.8" y="514.5" width="8.2" height="6.6" fill="#e8e4dc" stroke="#7a6a50" stroke-width="0.3" rx="0"/>
<line x1="630.0" y1="324.9" x2="630.0" y2="539.1" stroke="#b01010" stroke-width="0.5" stroke-dasharray="5,2.5,1.5,2.5"/>
<line x1="559.0" y1="349.5" x2="559.0" y2="514.5" stroke="#b01010" stroke-width="0.6"/>
<line x1="553.0" y1="349.5" x2="565.0" y2="349.5" stroke="#b01010" stroke-width="0.6"/>
<line x1="553.0" y1="514.5" x2="565.0" y2="514.5" stroke="#b01010" stroke-width="0.6"/>
<text x="552.4" y="438.0" font-size="7" text-anchor="end" font-weight="normal" fill="#b01010" font-family="Courier New,Courier,monospace">100 mm</text>
<line x1="582.1" y1="540.9" x2="677.9" y2="540.9" stroke="#b01010" stroke-width="0.6"/>
<line x1="582.1" y1="534.9" x2="582.1" y2="546.9" stroke="#b01010" stroke-width="0.6"/>
<line x1="677.9" y1="534.9" x2="677.9" y2="546.9" stroke="#b01010" stroke-width="0.6"/>
<text x="630.0" y="562.5" font-size="7" text-anchor="middle" font-weight="normal" fill="#b01010" font-family="Courier New,Courier,monospace">58 mm</text>
<line x1="593.7" y1="323.1" x2="666.3" y2="323.1" stroke="#b01010" stroke-width="0.6"/>
<line x1="593.7" y1="317.1" x2="593.7" y2="329.1" stroke="#b01010" stroke-width="0.6"/>
<line x1="666.3" y1="317.1" x2="666.3" y2="329.1" stroke="#b01010" stroke-width="0.6"/>
<text x="630.0" y="313.5" font-size="7" text-anchor="middle" font-weight="normal" fill="#b01010" font-family="Courier New,Courier,monospace">Kanal 44 mm</text>
<text x="710.9" y="408.0" font-size="7" text-anchor="start" font-weight="bold" fill="#1a4a80" font-family="Arial,Helvetica,sans-serif">Stapelbar:</text>
<text x="710.9" y="438.0" font-size="7" text-anchor="start" font-weight="normal" fill="#1a4a80" font-family="Arial,Helvetica,sans-serif">2 Stiels = 200 mm</text>
<text x="710.9" y="462.0" font-size="7" text-anchor="start" font-weight="normal" fill="#50483c" font-family="Arial,Helvetica,sans-serif">3 Stiels = 300 mm</text>
<text x="630.0" y="327.0" font-size="7.5" text-anchor="middle" font-weight="bold" fill="#151208" font-family="Arial,Helvetica,sans-serif">F: Stiel</text>
<text x="630.0" y="345.0" font-size="6" text-anchor="middle" font-weight="normal" fill="#50483c" font-family="Arial,Helvetica,sans-serif">Verbinder Ø58 100mm</text>
<line x1="759.0" y1="72.0" x2="759.0" y2="564.0" stroke="#151208" stroke-width="0.8"/>
<text x="823.5" y="93.0" font-size="9" text-anchor="middle" font-weight="bold" fill="#151208" font-family="Arial,Helvetica,sans-serif">Montage-Beispiel</text>
<text x="823.5" y="117.0" font-size="7" text-anchor="middle" font-weight="normal" fill="#50483c" font-family="Arial,Helvetica,sans-serif">Fuss 2 + Stiel + Schirm 2</text>
<line x1="771.0" y1="126.0" x2="876.0" y2="126.0" stroke="#151208" stroke-width="0.5"/>
<line x1="823.5" y1="150.0" x2="823.5" y2="174.0" stroke="#888" stroke-width="1.5"/>
<rect x="805.5" y="120.0" width="36.0" height="30.0" fill="#ddd" stroke="#888" stroke-width="0.7" rx="3"/>
<text x="853.5" y="135.0" font-size="6" text-anchor="start" font-weight="normal" fill="#50483c" font-family="Arial,Helvetica,sans-serif">STRALA E14</text>
<path d="M 784.4,193.3 L 862.6,193.3 L 958.5,294.6 L 688.5,294.6 Z" fill="url(#pl)" stroke="#7a6a50" stroke-width="1.8"/>
<path d="M 793.8,193.3 L 853.2,193.3 L 853.2,294.6 L 793.8,294.6 Z" fill="url(#hol)" stroke="#7a6a50" stroke-width="0.7"/>
<line x1="688.5" y1="294.6" x2="958.5" y2="294.6" stroke="#7a6a50" stroke-width="2"/>
<rect x="784.4" y="187.9" width="78.3" height="5.4" fill="url(#pl)" stroke="#7a6a50" stroke-width="1.2" rx="0"/>
<rect x="793.8" y="187.9" width="59.4" height="5.4" fill="url(#hol)" stroke="#7a6a50" stroke-width="0.7" rx="0"/>
<rect x="800.5" y="187.9" width="6.8" height="3.4" fill="#7a6a50" stroke="#7a6a50" stroke-width="0.3" rx="0"/>
<rect x="839.7" y="187.9" width="6.8" height="3.4" fill="#7a6a50" stroke="#7a6a50" stroke-width="0.3" rx="0"/>
<line x1="823.5" y1="169.9" x2="823.5" y2="318.0" stroke="#b01010" stroke-width="0.5" stroke-dasharray="5,2.5,1.5,2.5"/>
<line x1="688.5" y1="313.5" x2="958.5" y2="313.5" stroke="#b01010" stroke-width="0.6"/>
<line x1="688.5" y1="307.5" x2="688.5" y2="319.5" stroke="#b01010" stroke-width="0.6"/>
<line x1="958.5" y1="307.5" x2="958.5" y2="319.5" stroke="#b01010" stroke-width="0.6"/>
<text x="823.5" y="333.9" font-size="7" text-anchor="middle" font-weight="normal" fill="#b01010" font-family="Courier New,Courier,monospace">200 mm</text>
<line x1="784.4" y1="171.7" x2="862.6" y2="171.7" stroke="#b01010" stroke-width="0.6"/>
<line x1="784.4" y1="165.7" x2="784.4" y2="177.7" stroke="#b01010" stroke-width="0.6"/>
<line x1="862.6" y1="165.7" x2="862.6" y2="177.7" stroke="#b01010" stroke-width="0.6"/>
<text x="823.5" y="163.3" font-size="7" text-anchor="middle" font-weight="normal" fill="#b01010" font-family="Courier New,Courier,monospace">58 mm</text>
<line x1="980.1" y1="193.3" x2="980.1" y2="294.6" stroke="#b01010" stroke-width="0.6"/>
<line x1="974.1" y1="193.3" x2="986.1" y2="193.3" stroke="#b01010" stroke-width="0.6"/>
<line x1="974.1" y1="294.6" x2="986.1" y2="294.6" stroke="#b01010" stroke-width="0.6"/>
<text x="985.5" y="250.0" font-size="7" text-anchor="start" font-weight="normal" fill="#b01010" font-family="Courier New,Courier,monospace">75 mm</text>
<text x="823.5" y="329.7" font-size="7" text-anchor="middle" font-weight="normal" fill="#50483c" font-family="Arial,Helvetica,sans-serif">offen (Licht nach unten)</text>
<line x1="883.5" y1="300.0" x2="870.0" y2="300.0" stroke="#b01010" stroke-width="0.6" stroke-dasharray="3,2"/>
<text x="876.0" y="306.0" font-size="6" text-anchor="end" font-weight="normal" fill="#b01010" font-family="Arial,Helvetica,sans-serif">Bajonett 1</text>
<rect x="784.4" y="305.4" width="78.3" height="135.0" fill="url(#pl)" stroke="#7a6a50" stroke-width="1.8" rx="0"/>
<rect x="793.8" y="305.4" width="59.4" height="135.0" fill="url(#hol)" stroke="#7a6a50" stroke-width="0.7" rx="0"/>
<rect x="784.4" y="300.0" width="78.3" height="5.4" fill="url(#pl)" stroke="#7a6a50" stroke-width="1.2" rx="0"/>
<rect x="793.8" y="300.0" width="59.4" height="5.4" fill="url(#hol)" stroke="#7a6a50" stroke-width="0.7" rx="0"/>
<rect x="800.5" y="300.0" width="6.8" height="3.4" fill="#7a6a50" stroke="#7a6a50" stroke-width="0.3" rx="0"/>
<rect x="839.7" y="300.0" width="6.8" height="3.4" fill="#7a6a50" stroke="#7a6a50" stroke-width="0.3" rx="0"/>
<rect x="784.4" y="440.4" width="78.3" height="5.4" fill="url(#pl)" stroke="#7a6a50" stroke-width="1.2" rx="0"/>
<rect x="793.8" y="440.4" width="59.4" height="5.4" fill="url(#hol)" stroke="#7a6a50" stroke-width="0.7" rx="0"/>
<rect x="800.5" y="440.4" width="6.8" height="5.4" fill="#e8e4dc" stroke="#7a6a50" stroke-width="0.3" rx="0"/>
<rect x="839.7" y="440.4" width="6.8" height="5.4" fill="#e8e4dc" stroke="#7a6a50" stroke-width="0.3" rx="0"/>
<line x1="823.5" y1="282.0" x2="823.5" y2="463.8" stroke="#b01010" stroke-width="0.5" stroke-dasharray="5,2.5,1.5,2.5"/>
<line x1="765.5" y1="305.4" x2="765.5" y2="440.4" stroke="#b01010" stroke-width="0.6"/>
<line x1="759.5" y1="305.4" x2="771.5" y2="305.4" stroke="#b01010" stroke-width="0.6"/>
<line x1="759.5" y1="440.4" x2="771.5" y2="440.4" stroke="#b01010" stroke-width="0.6"/>
<text x="760.1" y="378.9" font-size="7" text-anchor="end" font-weight="normal" fill="#b01010" font-family="Courier New,Courier,monospace">100 mm</text>
<line x1="784.4" y1="462.0" x2="862.6" y2="462.0" stroke="#b01010" stroke-width="0.6"/>
<line x1="784.4" y1="456.0" x2="784.4" y2="468.0" stroke="#b01010" stroke-width="0.6"/>
<line x1="862.6" y1="456.0" x2="862.6" y2="468.0" stroke="#b01010" stroke-width="0.6"/>
<text x="823.5" y="482.4" font-size="7" text-anchor="middle" font-weight="normal" fill="#b01010" font-family="Courier New,Courier,monospace">58 mm</text>
<line x1="793.8" y1="283.8" x2="853.2" y2="283.8" stroke="#b01010" stroke-width="0.6"/>
<line x1="793.8" y1="277.8" x2="793.8" y2="289.8" stroke="#b01010" stroke-width="0.6"/>
<line x1="853.2" y1="277.8" x2="853.2" y2="289.8" stroke="#b01010" stroke-width="0.6"/>
<text x="823.5" y="275.4" font-size="7" text-anchor="middle" font-weight="normal" fill="#b01010" font-family="Courier New,Courier,monospace">Kanal 44 mm</text>
<text x="889.6" y="348.9" font-size="7" text-anchor="start" font-weight="bold" fill="#1a4a80" font-family="Arial,Helvetica,sans-serif">Stapelbar:</text>
<text x="889.6" y="378.9" font-size="7" text-anchor="start" font-weight="normal" fill="#1a4a80" font-family="Arial,Helvetica,sans-serif">2 Stiels = 200 mm</text>
<text x="889.6" y="402.9" font-size="7" text-anchor="start" font-weight="normal" fill="#50483c" font-family="Arial,Helvetica,sans-serif">3 Stiels = 300 mm</text>
<line x1="883.5" y1="445.8" x2="870.0" y2="445.8" stroke="#b01010" stroke-width="0.6" stroke-dasharray="3,2"/>
<text x="876.0" y="451.8" font-size="6" text-anchor="end" font-weight="normal" fill="#b01010" font-family="Arial,Helvetica,sans-serif">Bajonett 2</text>
<path d="M 784.4,451.2 L 862.6,451.2 L 918.0,525.4 L 729.0,525.4 Z" fill="url(#pl)" stroke="#7a6a50" stroke-width="1.8"/>
<path d="M 793.8,451.2 L 853.2,451.2 L 853.2,525.4 L 793.8,525.4 Z" fill="url(#hol)" stroke="#7a6a50" stroke-width="0.7"/>
<line x1="729.0" y1="525.4" x2="918.0" y2="525.4" stroke="#7a6a50" stroke-width="2"/>
<circle cx="745.2" cy="532.2" r="6.8" fill="#303030" stroke="#7a6a50" stroke-width="0.8"/>
<circle cx="901.8" cy="532.2" r="6.8" fill="#303030" stroke="#7a6a50" stroke-width="0.8"/>
<rect x="784.4" y="445.8" width="78.3" height="5.4" fill="url(#pl)" stroke="#7a6a50" stroke-width="1.2" rx="0"/>
<rect x="793.8" y="445.8" width="59.4" height="5.4" fill="url(#hol)" stroke="#7a6a50" stroke-width="0.7" rx="0"/>
<rect x="800.5" y="445.8" width="6.8" height="3.4" fill="#7a6a50" stroke="#7a6a50" stroke-width="0.3" rx="0"/>
<rect x="839.7" y="445.8" width="6.8" height="3.4" fill="#7a6a50" stroke="#7a6a50" stroke-width="0.3" rx="0"/>
<line x1="823.5" y1="427.8" x2="823.5" y2="551.5" stroke="#b01010" stroke-width="0.5" stroke-dasharray="5,2.5,1.5,2.5"/>
<line x1="729.0" y1="547.0" x2="918.0" y2="547.0" stroke="#b01010" stroke-width="0.6"/>
<line x1="729.0" y1="541.0" x2="729.0" y2="553.0" stroke="#b01010" stroke-width="0.6"/>
<line x1="918.0" y1="541.0" x2="918.0" y2="553.0" stroke="#b01010" stroke-width="0.6"/>
<text x="823.5" y="567.4" font-size="7" text-anchor="middle" font-weight="normal" fill="#b01010" font-family="Courier New,Courier,monospace">140 mm</text>
<line x1="784.4" y1="429.6" x2="862.6" y2="429.6" stroke="#b01010" stroke-width="0.6"/>
<line x1="784.4" y1="423.6" x2="784.4" y2="435.6" stroke="#b01010" stroke-width="0.6"/>
<line x1="862.6" y1="423.6" x2="862.6" y2="435.6" stroke="#b01010" stroke-width="0.6"/>
<text x="823.5" y="421.2" font-size="7" text-anchor="middle" font-weight="normal" fill="#b01010" font-family="Courier New,Courier,monospace">58 mm</text>
<line x1="936.9" y1="451.2" x2="936.9" y2="525.4" stroke="#b01010" stroke-width="0.6"/>
<line x1="930.9" y1="451.2" x2="942.9" y2="451.2" stroke="#b01010" stroke-width="0.6"/>
<line x1="930.9" y1="525.4" x2="942.9" y2="525.4" stroke="#b01010" stroke-width="0.6"/>
<text x="942.3" y="494.3" font-size="7" text-anchor="start" font-weight="normal" fill="#b01010" font-family="Courier New,Courier,monospace">55 mm</text>
<line x1="823.5" y1="533.5" x2="823.5" y2="563.5" stroke="#888" stroke-width="1.5"/>
<circle cx="823.5" cy="578.5" r="24.0" fill="#ddd" stroke="#888" stroke-width="0.8"/>
<text x="823.5" y="608.5" font-size="6" text-anchor="middle" font-weight="normal" fill="#50483c" font-family="Arial,Helvetica,sans-serif">Schuko-Kabel</text>
<text x="823.5" y="629.5" font-size="6" text-anchor="middle" font-weight="normal" fill="#50483c" font-family="Arial,Helvetica,sans-serif">Ø 44 mm Kanal</text>
<rect x="15.0" y="444.0" width="861.0" height="66.0" fill="#ffffff" stroke="#151208" stroke-width="0.7" rx="4.5"/>
<text x="445.5" y="463.5" font-size="7.5" text-anchor="middle" font-weight="bold" fill="#151208" font-family="Arial,Helvetica,sans-serif">BAUHAUS FARBKONZEPT – PETG Filament</text>
<rect x="24.0" y="471.0" width="134.5" height="30.0" fill="#1c1c1c" stroke="#888" stroke-width="0.5" rx="3"/>
<text x="91.2" y="490.5" font-size="6" text-anchor="middle" font-weight="bold" fill="#ffffff" font-family="Arial,Helvetica,sans-serif">A: Schwarz</text>
<rect x="164.5" y="471.0" width="134.5" height="30.0" fill="#f0f0f0" stroke="#888" stroke-width="0.5" rx="3"/>
<text x="231.8" y="490.5" font-size="6" text-anchor="middle" font-weight="bold" fill="#1a1a1a" font-family="Arial,Helvetica,sans-serif">B: Weiss</text>
<rect x="305.0" y="471.0" width="134.5" height="30.0" fill="#c0201a" stroke="#888" stroke-width="0.5" rx="3"/>
<text x="372.2" y="490.5" font-size="6" text-anchor="middle" font-weight="bold" fill="#ffffff" font-family="Arial,Helvetica,sans-serif">C: Rot</text>
<rect x="445.5" y="471.0" width="134.5" height="30.0" fill="#e8a800" stroke="#888" stroke-width="0.5" rx="3"/>
<text x="512.8" y="490.5" font-size="6" text-anchor="middle" font-weight="bold" fill="#1a1a1a" font-family="Arial,Helvetica,sans-serif">D: Gelb</text>
<rect x="586.0" y="471.0" width="134.5" height="30.0" fill="#1a3e8a" stroke="#888" stroke-width="0.5" rx="3"/>
<text x="653.2" y="490.5" font-size="6" text-anchor="middle" font-weight="bold" fill="#ffffff" font-family="Arial,Helvetica,sans-serif">E: Blau</text>
<rect x="726.5" y="471.0" width="134.5" height="30.0" fill="#1c1c1c" stroke="#888" stroke-width="0.5" rx="3"/>
<text x="793.8" y="490.5" font-size="6" text-anchor="middle" font-weight="bold" fill="#ffffff" font-family="Arial,Helvetica,sans-serif">F: Schwarz</text>
<line x1="15.0" y1="516.0" x2="876.0" y2="516.0" stroke="#151208" stroke-width="0.5"/>
<text x="24.0" y="537.0" font-size="6.5" text-anchor="start" font-weight="normal" fill="#50483c" font-family="Courier New,Courier,monospace">Kabelkanal Ø 44 mm: Schuko-Kabel (Ø max.19 mm Stecker) laeuft durch alle Elemente sicher hindurch.</text>
<text x="24.0" y="559.5" font-size="6.5" text-anchor="start" font-weight="normal" fill="#50483c" font-family="Courier New,Courier,monospace">Bajonett Ø 58 mm: 4 Pins, 90 Grad Vierteldrehung zum Verriegeln. Male oben (M), Female unten (F).</text>
<text x="24.0" y="582.0" font-size="6.5" text-anchor="start" font-weight="normal" fill="#50483c" font-family="Courier New,Courier,monospace">Druckmaterial: PLA-CF / PETG-CF / Bambu Matte PLA | Infill: 25-40 % Gyroid | Schichthoehe: 0.2 mm</text>
<text x="24.0" y="604.5" font-size="6.5" text-anchor="start" font-weight="normal" fill="#50483c" font-family="Courier New,Courier,monospace">Alle Masse in mm | Massstab Uebersicht ca. 1:2.8 | Einzelblaetter Elemente A-F: Massstab 1:1.4</text>
<rect x="0.0" y="582.0" width="891.0" height="48.0" fill="#f0ece0" stroke="#151208" stroke-width="1" rx="0"/>
<line x1="165.0" y1="582.0" x2="165.0" y2="630.0" stroke="#151208" stroke-width="0.5"/>
<line x1="540.0" y1="582.0" x2="540.0" y2="630.0" stroke="#151208" stroke-width="0.5"/>
<line x1="837.0" y1="582.0" x2="837.0" y2="630.0" stroke="#151208" stroke-width="0.5"/>
<text x="82.5" y="600.0" font-size="7" text-anchor="middle" font-weight="bold" fill="#151208" font-family="Courier New,Courier,monospace">BAMBU LAB P1S / P2S</text>
<text x="82.5" y="618.0" font-size="6.5" text-anchor="middle" font-weight="normal" fill="#50483c" font-family="Courier New,Courier,monospace">Bauhaus Modullampe</text>
<text x="351.0" y="606.0" font-size="9" text-anchor="middle" font-weight="bold" fill="#151208" font-family="Courier New,Courier,monospace">Uebersicht – alle 6 Elemente</text>
<text x="714.0" y="606.0" font-size="8" text-anchor="middle" font-weight="normal" fill="#50483c" font-family="Courier New,Courier,monospace">Blatt 1 / 7</text>
</svg>
