solid OpenSCAD_Model
  facet normal -0.831468 0 0.555572
    outer loop
      vertex 1.13137 15.1944 6.36863
      vertex 1.47821 17.9274 6.88771
      vertex 1.13137 17.9444 6.36863
    endloop
  endfacet
  facet normal -0.831468 0 0.555572
    outer loop
      vertex 1.47821 17.9274 6.88771
      vertex 1.13137 15.1944 6.36863
      vertex 1.47821 15.1774 6.88771
    endloop
  endfacet
  facet normal -0.980793 0 0.195051
    outer loop
      vertex 1.49476 15.1766 6.97093
      vertex 1.47821 17.9274 6.88771
      vertex 1.47821 15.1774 6.88771
    endloop
  endfacet
  facet normal -0.980786 1.14418e-06 0.195087
    outer loop
      vertex 1.47821 17.9274 6.88771
      vertex 1.49476 15.1766 6.97093
      vertex 1.6 17.9214 7.5
    endloop
  endfacet
  facet normal -0.980785 0 0.195093
    outer loop
      vertex 1.6 17.9214 7.5
      vertex 1.49476 15.1766 6.97093
      vertex 1.6 15.161 7.5
    endloop
  endfacet
  facet normal -0.555574 0 0.831467
    outer loop
      vertex 0.612293 15.2199 6.02179
      vertex 1.13137 17.9444 6.36863
      vertex 0.612293 17.9699 6.02179
    endloop
  endfacet
  facet normal -0.555574 0 0.831467
    outer loop
      vertex 1.13137 17.9444 6.36863
      vertex 0.612293 15.2199 6.02179
      vertex 1.13137 15.1944 6.36863
    endloop
  endfacet
  facet normal -0.831468 0 -0.555572
    outer loop
      vertex 1.47821 17.9274 8.11229
      vertex 1.13137 15.1944 8.63137
      vertex 1.13137 17.9444 8.63137
    endloop
  endfacet
  facet normal -0.831468 0 -0.555572
    outer loop
      vertex 1.13137 15.1944 8.63137
      vertex 1.47821 17.9274 8.11229
      vertex 1.47821 15.1774 8.11229
    endloop
  endfacet
  facet normal -0.555574 0 -0.831467
    outer loop
      vertex 0.612293 15.2199 8.97821
      vertex 1.13137 17.9444 8.63137
      vertex 1.13137 15.1944 8.63137
    endloop
  endfacet
  facet normal -0.555574 0 -0.831467
    outer loop
      vertex 1.13137 17.9444 8.63137
      vertex 0.612293 15.2199 8.97821
      vertex 0.612293 17.9699 8.97821
    endloop
  endfacet
  facet normal -0.195086 0 -0.980786
    outer loop
      vertex 0 15.25 9.1
      vertex 0.612293 17.9699 8.97821
      vertex 0.612293 15.2199 8.97821
    endloop
  endfacet
  facet normal -0.195086 0 -0.980786
    outer loop
      vertex 0.612293 17.9699 8.97821
      vertex 0 15.25 9.1
      vertex 0 18 9.1
    endloop
  endfacet
  facet normal -0.195086 0 0.980786
    outer loop
      vertex 0 15.25 5.9
      vertex 0.612293 17.9699 6.02179
      vertex 0 18 5.9
    endloop
  endfacet
  facet normal -0.195086 0 0.980786
    outer loop
      vertex 0.612293 17.9699 6.02179
      vertex 0 15.25 5.9
      vertex 0.612293 15.2199 6.02179
    endloop
  endfacet
  facet normal -0.980786 1.14418e-06 -0.195087
    outer loop
      vertex 1.49476 15.1766 8.02907
      vertex 1.47821 17.9274 8.11229
      vertex 1.6 17.9214 7.5
    endloop
  endfacet
  facet normal -0.980793 -0 -0.195051
    outer loop
      vertex 1.47821 17.9274 8.11229
      vertex 1.49476 15.1766 8.02907
      vertex 1.47821 15.1774 8.11229
    endloop
  endfacet
  facet normal -0.980785 0 -0.195093
    outer loop
      vertex 1.49476 15.1766 8.02907
      vertex 1.6 17.9214 7.5
      vertex 1.6 15.161 7.5
    endloop
  endfacet
  facet normal -0.831478 0 0.555557
    outer loop
      vertex 1.13137 15.1944 16.3686
      vertex 1.47821 17.9274 16.8877
      vertex 1.13137 17.9444 16.3686
    endloop
  endfacet
  facet normal -0.831478 0 0.555557
    outer loop
      vertex 1.47821 17.9274 16.8877
      vertex 1.13137 15.1944 16.3686
      vertex 1.47821 15.1774 16.8877
    endloop
  endfacet
  facet normal -0.980784 0 0.195096
    outer loop
      vertex 1.49476 15.1766 16.9709
      vertex 1.47821 17.9274 16.8877
      vertex 1.47821 15.1774 16.8877
    endloop
  endfacet
  facet normal -0.980787 -3.71039e-07 0.195084
    outer loop
      vertex 1.47821 17.9274 16.8877
      vertex 1.49476 15.1766 16.9709
      vertex 1.6 17.9214 17.5
    endloop
  endfacet
  facet normal -0.980787 0 0.195082
    outer loop
      vertex 1.6 17.9214 17.5
      vertex 1.49476 15.1766 16.9709
      vertex 1.6 15.161 17.5
    endloop
  endfacet
  facet normal -0.55553 0 0.831496
    outer loop
      vertex 0.612293 15.2199 16.0218
      vertex 1.13137 17.9444 16.3686
      vertex 0.612293 17.9699 16.0218
    endloop
  endfacet
  facet normal -0.55553 0 0.831496
    outer loop
      vertex 1.13137 17.9444 16.3686
      vertex 0.612293 15.2199 16.0218
      vertex 1.13137 15.1944 16.3686
    endloop
  endfacet
  facet normal -0.831478 0 -0.555557
    outer loop
      vertex 1.47821 17.9274 18.1123
      vertex 1.13137 15.1944 18.6314
      vertex 1.13137 17.9444 18.6314
    endloop
  endfacet
  facet normal -0.831478 0 -0.555557
    outer loop
      vertex 1.13137 15.1944 18.6314
      vertex 1.47821 17.9274 18.1123
      vertex 1.47821 15.1774 18.1123
    endloop
  endfacet
  facet normal -0.55553 0 -0.831496
    outer loop
      vertex 0.612293 15.2199 18.9782
      vertex 1.13137 17.9444 18.6314
      vertex 1.13137 15.1944 18.6314
    endloop
  endfacet
  facet normal -0.55553 0 -0.831496
    outer loop
      vertex 1.13137 17.9444 18.6314
      vertex 0.612293 15.2199 18.9782
      vertex 0.612293 17.9699 18.9782
    endloop
  endfacet
  facet normal -0.195102 0 0.980783
    outer loop
      vertex 0 15.25 15.9
      vertex 0.612293 17.9699 16.0218
      vertex 0 18 15.9
    endloop
  endfacet
  facet normal -0.195102 0 0.980783
    outer loop
      vertex 0.612293 17.9699 16.0218
      vertex 0 15.25 15.9
      vertex 0.612293 15.2199 16.0218
    endloop
  endfacet
  facet normal -0.980787 -3.71039e-07 -0.195084
    outer loop
      vertex 1.49476 15.1766 18.0291
      vertex 1.47821 17.9274 18.1123
      vertex 1.6 17.9214 17.5
    endloop
  endfacet
  facet normal -0.980784 -0 -0.195096
    outer loop
      vertex 1.47821 17.9274 18.1123
      vertex 1.49476 15.1766 18.0291
      vertex 1.47821 15.1774 18.1123
    endloop
  endfacet
  facet normal -0.980787 0 -0.195082
    outer loop
      vertex 1.49476 15.1766 18.0291
      vertex 1.6 17.9214 17.5
      vertex 1.6 15.161 17.5
    endloop
  endfacet
  facet normal -0.195102 0 -0.980783
    outer loop
      vertex 0 15.25 19.1
      vertex 0.612293 17.9699 18.9782
      vertex 0.612293 15.2199 18.9782
    endloop
  endfacet
  facet normal -0.195102 0 -0.980783
    outer loop
      vertex 0.612293 17.9699 18.9782
      vertex 0 15.25 19.1
      vertex 0 18 19.1
    endloop
  endfacet
  facet normal 0.989176 0.146736 0
    outer loop
      vertex 17.9133 1.76431 25
      vertex 17.6541 3.51163 0
      vertex 17.6541 3.51163 25
    endloop
  endfacet
  facet normal 0.989176 0.146736 0
    outer loop
      vertex 17.6541 3.51163 0
      vertex 17.9133 1.76431 25
      vertex 17.9133 1.76431 0
    endloop
  endfacet
  facet normal 0.998795 0.0490818 0
    outer loop
      vertex 18 0 25
      vertex 17.9133 1.76431 0
      vertex 17.9133 1.76431 25
    endloop
  endfacet
  facet normal 0.998795 0.0490818 0
    outer loop
      vertex 17.9133 1.76431 0
      vertex 18 0 25
      vertex 18 0 0
    endloop
  endfacet
  facet normal 0.970032 0.242977 0
    outer loop
      vertex 17.6541 3.51163 25
      vertex 17.2249 5.22512 0
      vertex 17.2249 5.22512 25
    endloop
  endfacet
  facet normal 0.970032 0.242977 0
    outer loop
      vertex 17.2249 5.22512 0
      vertex 17.6541 3.51163 25
      vertex 17.6541 3.51163 0
    endloop
  endfacet
  facet normal 0.740931 0.671582 0
    outer loop
      vertex 13.9142 11.4191 25
      vertex 12.7279 12.7279 0
      vertex 12.7279 12.7279 25
    endloop
  endfacet
  facet normal 0.740931 0.671582 0
    outer loop
      vertex 12.7279 12.7279 0
      vertex 13.9142 11.4191 25
      vertex 13.9142 11.4191 0
    endloop
  endfacet
  facet normal 0.514081 0.857742 -0
    outer loop
      vertex 10.0003 14.9665 0
      vertex 8.48514 15.8746 25
      vertex 10.0003 14.9665 25
    endloop
  endfacet
  facet normal 0.514081 0.857742 0
    outer loop
      vertex 8.48514 15.8746 25
      vertex 10.0003 14.9665 0
      vertex 8.48514 15.8746 0
    endloop
  endfacet
  facet normal 0 0 -1
    outer loop
      vertex 15.25 0 0
      vertex 18 0 0
      vertex 17.9995 -0.00999928 0
    endloop
  endfacet
  facet normal 0 0 -1
    outer loop
      vertex 18 0 0
      vertex 15.1766 1.49476 0
      vertex 17.9133 1.76431 0
    endloop
  endfacet
  facet normal -0 0 -1
    outer loop
      vertex 17.9133 1.76431 0
      vertex 15.1766 1.49476 0
      vertex 17.6541 3.51163 0
    endloop
  endfacet
  facet normal -0 0 -1
    outer loop
      vertex 17.6541 3.51163 0
      vertex 14.957 2.97513 0
      vertex 17.2249 5.22512 0
    endloop
  endfacet
  facet normal 0 0 -1
    outer loop
      vertex 14.5933 4.42684 0
      vertex 17.2249 5.22512 0
      vertex 14.957 2.97513 0
    endloop
  endfacet
  facet normal 0 0 -1
    outer loop
      vertex 18 0 0
      vertex 15.25 0 0
      vertex 15.1766 1.49476 0
    endloop
  endfacet
  facet normal 0 -0 -1
    outer loop
      vertex 15.25 0 0
      vertex 17.9995 -0.00999928 0
      vertex 15.2495 -0.00999928 0
    endloop
  endfacet
  facet normal 0 0 -1
    outer loop
      vertex 17.6541 3.51163 0
      vertex 15.1766 1.49476 0
      vertex 14.957 2.97513 0
    endloop
  endfacet
  facet normal -0 0 -1
    outer loop
      vertex 17.2249 5.22512 0
      vertex 14.5933 4.42684 0
      vertex 16.6298 6.8883 0
    endloop
  endfacet
  facet normal 0 0 -1
    outer loop
      vertex 14.0892 5.83592 0
      vertex 16.6298 6.8883 0
      vertex 14.5933 4.42684 0
    endloop
  endfacet
  facet normal -0 0 -1
    outer loop
      vertex 16.6298 6.8883 0
      vertex 14.0892 5.83592 0
      vertex 15.8746 8.48514 0
    endloop
  endfacet
  facet normal 0 0 -1
    outer loop
      vertex 13.4493 7.1888 0
      vertex 15.8746 8.48514 0
      vertex 14.0892 5.83592 0
    endloop
  endfacet
  facet normal -0 0 -1
    outer loop
      vertex 15.8746 8.48514 0
      vertex 13.4493 7.1888 0
      vertex 14.9665 10.0003 0
    endloop
  endfacet
  facet normal 0 0 -1
    outer loop
      vertex 12.6799 8.47245 0
      vertex 14.9665 10.0003 0
      vertex 13.4493 7.1888 0
    endloop
  endfacet
  facet normal -0 0 -1
    outer loop
      vertex 14.9665 10.0003 0
      vertex 12.6799 8.47245 0
      vertex 13.9142 11.4191 0
    endloop
  endfacet
  facet normal 0 0 -1
    outer loop
      vertex 11.7884 9.6745 0
      vertex 13.9142 11.4191 0
      vertex 12.6799 8.47245 0
    endloop
  endfacet
  facet normal -0 0 -1
    outer loop
      vertex 13.9142 11.4191 0
      vertex 11.7884 9.6745 0
      vertex 12.7279 12.7279 0
    endloop
  endfacet
  facet normal 0 0 -1
    outer loop
      vertex 10.7834 10.7834 0
      vertex 12.7279 12.7279 0
      vertex 11.7884 9.6745 0
    endloop
  endfacet
  facet normal -0 0 -1
    outer loop
      vertex 12.7279 12.7279 0
      vertex 10.7834 10.7834 0
      vertex 11.4191 13.9142 0
    endloop
  endfacet
  facet normal 0 0 -1
    outer loop
      vertex 9.6745 11.7884 0
      vertex 11.4191 13.9142 0
      vertex 10.7834 10.7834 0
    endloop
  endfacet
  facet normal -0 0 -1
    outer loop
      vertex 11.4191 13.9142 0
      vertex 9.6745 11.7884 0
      vertex 10.0003 14.9665 0
    endloop
  endfacet
  facet normal 0 0 -1
    outer loop
      vertex 8.47245 12.6799 0
      vertex 10.0003 14.9665 0
      vertex 9.6745 11.7884 0
    endloop
  endfacet
  facet normal -0 0 -1
    outer loop
      vertex 10.0003 14.9665 0
      vertex 8.47245 12.6799 0
      vertex 8.48514 15.8746 0
    endloop
  endfacet
  facet normal 0 0 -1
    outer loop
      vertex 7.1888 13.4493 0
      vertex 8.48514 15.8746 0
      vertex 8.47245 12.6799 0
    endloop
  endfacet
  facet normal 0 0 -1
    outer loop
      vertex 7.1888 13.4493 0
      vertex 6.8883 16.6298 0
      vertex 8.48514 15.8746 0
    endloop
  endfacet
  facet normal 0 0 -1
    outer loop
      vertex 5.83592 14.0892 0
      vertex 6.8883 16.6298 0
      vertex 7.1888 13.4493 0
    endloop
  endfacet
  facet normal 0 0 -1
    outer loop
      vertex 5.83592 14.0892 0
      vertex 5.22512 17.2249 0
      vertex 6.8883 16.6298 0
    endloop
  endfacet
  facet normal 0 0 -1
    outer loop
      vertex 4.42684 14.5933 0
      vertex 5.22512 17.2249 0
      vertex 5.83592 14.0892 0
    endloop
  endfacet
  facet normal 0 0 -1
    outer loop
      vertex 4.42684 14.5933 0
      vertex 3.51163 17.6541 0
      vertex 5.22512 17.2249 0
    endloop
  endfacet
  facet normal 0 0 -1
    outer loop
      vertex 2.97513 14.957 0
      vertex 3.51163 17.6541 0
      vertex 4.42684 14.5933 0
    endloop
  endfacet
  facet normal 0 0 -1
    outer loop
      vertex 2.97513 14.957 0
      vertex 1.76431 17.9133 0
      vertex 3.51163 17.6541 0
    endloop
  endfacet
  facet normal 0 0 -1
    outer loop
      vertex 1.49476 15.1766 0
      vertex 1.76431 17.9133 0
      vertex 2.97513 14.957 0
    endloop
  endfacet
  facet normal 0 0 -1
    outer loop
      vertex 0 15.25 0
      vertex 1.76431 17.9133 0
      vertex 1.49476 15.1766 0
    endloop
  endfacet
  facet normal -0 0 -1
    outer loop
      vertex 1.76431 17.9133 0
      vertex 0 15.25 0
      vertex 0 18 0
    endloop
  endfacet
  facet normal 0.427532 0.904 -0
    outer loop
      vertex 8.48514 15.8746 0
      vertex 6.8883 16.6298 25
      vertex 8.48514 15.8746 25
    endloop
  endfacet
  facet normal 0.427532 0.904 0
    outer loop
      vertex 6.8883 16.6298 25
      vertex 8.48514 15.8746 0
      vertex 6.8883 16.6298 0
    endloop
  endfacet
  facet normal 0.998752 -0.0499412 0
    outer loop
      vertex 17.9995 -0.00999928 25
      vertex 18 0 0
      vertex 18 0 25
    endloop
  endfacet
  facet normal 0.998752 -0.0499412 0
    outer loop
      vertex 18 0 0
      vertex 17.9995 -0.00999928 25
      vertex 17.9995 -0.00999928 0
    endloop
  endfacet
  facet normal 0.242977 0.970032 -0
    outer loop
      vertex 5.22512 17.2249 0
      vertex 3.51163 17.6541 25
      vertex 5.22512 17.2249 25
    endloop
  endfacet
  facet normal 0.242977 0.970032 0
    outer loop
      vertex 3.51163 17.6541 25
      vertex 5.22512 17.2249 0
      vertex 3.51163 17.6541 0
    endloop
  endfacet
  facet normal 0.941543 0.336892 0
    outer loop
      vertex 17.2249 5.22512 25
      vertex 16.6298 6.8883 0
      vertex 16.6298 6.8883 25
    endloop
  endfacet
  facet normal 0.941543 0.336892 0
    outer loop
      vertex 16.6298 6.8883 0
      vertex 17.2249 5.22512 25
      vertex 17.2249 5.22512 0
    endloop
  endfacet
  facet normal 0.595716 0.803195 -0
    outer loop
      vertex 11.4191 13.9142 0
      vertex 10.0003 14.9665 25
      vertex 11.4191 13.9142 25
    endloop
  endfacet
  facet normal 0.595716 0.803195 0
    outer loop
      vertex 10.0003 14.9665 25
      vertex 11.4191 13.9142 0
      vertex 10.0003 14.9665 0
    endloop
  endfacet
  facet normal 0.336892 0.941543 -0
    outer loop
      vertex 6.8883 16.6298 0
      vertex 5.22512 17.2249 25
      vertex 6.8883 16.6298 25
    endloop
  endfacet
  facet normal 0.336892 0.941543 0
    outer loop
      vertex 5.22512 17.2249 25
      vertex 6.8883 16.6298 0
      vertex 5.22512 17.2249 0
    endloop
  endfacet
  facet normal 0.803195 0.595716 0
    outer loop
      vertex 14.9665 10.0003 25
      vertex 13.9142 11.4191 0
      vertex 13.9142 11.4191 25
    endloop
  endfacet
  facet normal 0.803195 0.595716 0
    outer loop
      vertex 13.9142 11.4191 0
      vertex 14.9665 10.0003 25
      vertex 14.9665 10.0003 0
    endloop
  endfacet
  facet normal 0.857742 0.514081 0
    outer loop
      vertex 15.8746 8.48514 25
      vertex 14.9665 10.0003 0
      vertex 14.9665 10.0003 25
    endloop
  endfacet
  facet normal 0.857742 0.514081 0
    outer loop
      vertex 14.9665 10.0003 0
      vertex 15.8746 8.48514 25
      vertex 15.8746 8.48514 0
    endloop
  endfacet
  facet normal 0.904 0.427532 0
    outer loop
      vertex 16.6298 6.8883 25
      vertex 15.8746 8.48514 0
      vertex 15.8746 8.48514 25
    endloop
  endfacet
  facet normal 0.904 0.427532 0
    outer loop
      vertex 15.8746 8.48514 0
      vertex 16.6298 6.8883 25
      vertex 16.6298 6.8883 0
    endloop
  endfacet
  facet normal 0 0 1
    outer loop
      vertex 17.9133 1.76431 25
      vertex 15.1766 1.49476 25
      vertex 15.25 0 25
    endloop
  endfacet
  facet normal 0 0 1
    outer loop
      vertex 13.4493 7.1888 25
      vertex 15.8746 8.48514 25
      vertex 14.9665 10.0003 25
    endloop
  endfacet
  facet normal 0 0 1
    outer loop
      vertex 16.6298 6.8883 25
      vertex 14.957 2.97513 25
      vertex 15.1766 1.49476 25
    endloop
  endfacet
  facet normal 0 0 1
    outer loop
      vertex 16.6298 6.8883 25
      vertex 14.5933 4.42684 25
      vertex 14.957 2.97513 25
    endloop
  endfacet
  facet normal 0 0 1
    outer loop
      vertex 16.6298 6.8883 25
      vertex 14.0892 5.83592 25
      vertex 14.5933 4.42684 25
    endloop
  endfacet
  facet normal 0 0 1
    outer loop
      vertex 12.6799 8.47245 25
      vertex 14.9665 10.0003 25
      vertex 13.9142 11.4191 25
    endloop
  endfacet
  facet normal 0 0 1
    outer loop
      vertex 15.8746 8.48514 25
      vertex 13.4493 7.1888 25
      vertex 14.0892 5.83592 25
    endloop
  endfacet
  facet normal 0 0 1
    outer loop
      vertex 11.7884 9.6745 25
      vertex 13.9142 11.4191 25
      vertex 12.7279 12.7279 25
    endloop
  endfacet
  facet normal 0 0 1
    outer loop
      vertex 14.9665 10.0003 25
      vertex 12.6799 8.47245 25
      vertex 13.4493 7.1888 25
    endloop
  endfacet
  facet normal 0 0 1
    outer loop
      vertex 13.9142 11.4191 25
      vertex 11.7884 9.6745 25
      vertex 12.6799 8.47245 25
    endloop
  endfacet
  facet normal 0 0 1
    outer loop
      vertex 10.7834 10.7834 25
      vertex 12.7279 12.7279 25
      vertex 11.4191 13.9142 25
    endloop
  endfacet
  facet normal 0 0 1
    outer loop
      vertex 12.7279 12.7279 25
      vertex 10.7834 10.7834 25
      vertex 11.7884 9.6745 25
    endloop
  endfacet
  facet normal 0 0 1
    outer loop
      vertex 9.6745 11.7884 25
      vertex 11.4191 13.9142 25
      vertex 10.0003 14.9665 25
    endloop
  endfacet
  facet normal 0 0 1
    outer loop
      vertex 11.4191 13.9142 25
      vertex 9.6745 11.7884 25
      vertex 10.7834 10.7834 25
    endloop
  endfacet
  facet normal 0 0 1
    outer loop
      vertex 8.47245 12.6799 25
      vertex 10.0003 14.9665 25
      vertex 8.48514 15.8746 25
    endloop
  endfacet
  facet normal 0 0 1
    outer loop
      vertex 10.0003 14.9665 25
      vertex 8.47245 12.6799 25
      vertex 9.6745 11.7884 25
    endloop
  endfacet
  facet normal 0 0 1
    outer loop
      vertex 8.48514 15.8746 25
      vertex 7.1888 13.4493 25
      vertex 8.47245 12.6799 25
    endloop
  endfacet
  facet normal 0 0 1
    outer loop
      vertex 6.8883 16.6298 25
      vertex 7.1888 13.4493 25
      vertex 8.48514 15.8746 25
    endloop
  endfacet
  facet normal 0 0 1
    outer loop
      vertex 6.8883 16.6298 25
      vertex 5.83592 14.0892 25
      vertex 7.1888 13.4493 25
    endloop
  endfacet
  facet normal 0 0 1
    outer loop
      vertex 5.22512 17.2249 25
      vertex 5.83592 14.0892 25
      vertex 6.8883 16.6298 25
    endloop
  endfacet
  facet normal 0 0 1
    outer loop
      vertex 5.22512 17.2249 25
      vertex 4.42684 14.5933 25
      vertex 5.83592 14.0892 25
    endloop
  endfacet
  facet normal 0 0 1
    outer loop
      vertex 3.51163 17.6541 25
      vertex 4.42684 14.5933 25
      vertex 5.22512 17.2249 25
    endloop
  endfacet
  facet normal 0 0 1
    outer loop
      vertex 3.51163 17.6541 25
      vertex 2.97513 14.957 25
      vertex 4.42684 14.5933 25
    endloop
  endfacet
  facet normal 0 0 1
    outer loop
      vertex 1.76431 17.9133 25
      vertex 2.97513 14.957 25
      vertex 3.51163 17.6541 25
    endloop
  endfacet
  facet normal 0 0 1
    outer loop
      vertex 1.76431 17.9133 25
      vertex 1.49476 15.1766 25
      vertex 2.97513 14.957 25
    endloop
  endfacet
  facet normal 0 0 1
    outer loop
      vertex 0 18 25
      vertex 1.49476 15.1766 25
      vertex 1.76431 17.9133 25
    endloop
  endfacet
  facet normal 0 0 1
    outer loop
      vertex 1.49476 15.1766 25
      vertex 0 18 25
      vertex 0 15.25 25
    endloop
  endfacet
  facet normal 0 0 1
    outer loop
      vertex 15.25 0 25
      vertex 18 0 25
      vertex 17.9133 1.76431 25
    endloop
  endfacet
  facet normal 0 0 1
    outer loop
      vertex 15.1766 1.49476 25
      vertex 17.9133 1.76431 25
      vertex 17.6541 3.51163 25
    endloop
  endfacet
  facet normal 0 0 1
    outer loop
      vertex 15.1766 1.49476 25
      vertex 17.6541 3.51163 25
      vertex 17.2249 5.22512 25
    endloop
  endfacet
  facet normal 0 0 1
    outer loop
      vertex 15.1766 1.49476 25
      vertex 17.2249 5.22512 25
      vertex 16.6298 6.8883 25
    endloop
  endfacet
  facet normal 0 0 1
    outer loop
      vertex 14.0892 5.83592 25
      vertex 16.6298 6.8883 25
      vertex 15.8746 8.48514 25
    endloop
  endfacet
  facet normal 0 0 1
    outer loop
      vertex 18 0 25
      vertex 15.25 0 25
      vertex 17.9995 -0.00999928 25
    endloop
  endfacet
  facet normal 0 0 1
    outer loop
      vertex 17.9995 -0.00999928 25
      vertex 15.25 0 25
      vertex 15.2495 -0.00999928 25
    endloop
  endfacet
  facet normal 0.146736 0.989176 -0
    outer loop
      vertex 3.51163 17.6541 0
      vertex 1.76431 17.9133 25
      vertex 3.51163 17.6541 25
    endloop
  endfacet
  facet normal 0.146736 0.989176 0
    outer loop
      vertex 1.76431 17.9133 25
      vertex 3.51163 17.6541 0
      vertex 1.76431 17.9133 0
    endloop
  endfacet
  facet normal 0.671582 0.740931 -0
    outer loop
      vertex 12.7279 12.7279 0
      vertex 11.4191 13.9142 25
      vertex 12.7279 12.7279 25
    endloop
  endfacet
  facet normal 0.671582 0.740931 0
    outer loop
      vertex 11.4191 13.9142 25
      vertex 12.7279 12.7279 0
      vertex 11.4191 13.9142 0
    endloop
  endfacet
  facet normal 0.0490818 0.998795 0
    outer loop
      vertex 1.76431 17.9133 25
      vertex 0 18 19.1
      vertex 0 18 25
    endloop
  endfacet
  facet normal 0.0490991 0.998794 -5.20033e-06
    outer loop
      vertex 1.76431 17.9133 25
      vertex 0.612293 17.9699 18.9782
      vertex 0 18 19.1
    endloop
  endfacet
  facet normal 0.0490671 0.998795 9.41962e-07
    outer loop
      vertex 1.76431 17.9133 25
      vertex 1.13137 17.9444 18.6314
      vertex 0.612293 17.9699 18.9782
    endloop
  endfacet
  facet normal 0.0489709 0.9988 1.05271e-05
    outer loop
      vertex 1.76431 17.9133 25
      vertex 1.47821 17.9274 18.1123
      vertex 1.13137 17.9444 18.6314
    endloop
  endfacet
  facet normal 0.0492086 0.998789 6.29394e-07
    outer loop
      vertex 1.76431 17.9133 25
      vertex 1.6 17.9214 17.5
      vertex 1.47821 17.9274 18.1123
    endloop
  endfacet
  facet normal 0.0491002 0.998794 0
    outer loop
      vertex 0.612293 17.9699 16.0218
      vertex 0 18 9.1
      vertex 0 18 15.9
    endloop
  endfacet
  facet normal 0.0490665 0.998796 -0
    outer loop
      vertex 0.612293 17.9699 8.97821
      vertex 0.612293 17.9699 16.0218
      vertex 1.13137 17.9444 16.3686
    endloop
  endfacet
  facet normal 0.0489552 0.998801 -0
    outer loop
      vertex 1.13137 17.9444 8.63137
      vertex 1.13137 17.9444 16.3686
      vertex 1.47821 17.9274 16.8877
    endloop
  endfacet
  facet normal 0.0492055 0.998789 -0
    outer loop
      vertex 1.47821 17.9274 8.11229
      vertex 1.47821 17.9274 16.8877
      vertex 1.6 17.9214 17.5
    endloop
  endfacet
  facet normal 0.0491002 0.998794 0
    outer loop
      vertex 0.612293 17.9699 16.0218
      vertex 0.612293 17.9699 8.97821
      vertex 0 18 9.1
    endloop
  endfacet
  facet normal 0.0490665 0.998796 0
    outer loop
      vertex 1.13137 17.9444 16.3686
      vertex 1.13137 17.9444 8.63137
      vertex 0.612293 17.9699 8.97821
    endloop
  endfacet
  facet normal 0.0489552 0.998801 0
    outer loop
      vertex 1.47821 17.9274 16.8877
      vertex 1.47821 17.9274 8.11229
      vertex 1.13137 17.9444 8.63137
    endloop
  endfacet
  facet normal 0.0492373 0.998787 -0
    outer loop
      vertex 1.6 17.9214 7.5
      vertex 1.6 17.9214 17.5
      vertex 1.76431 17.9133 25
    endloop
  endfacet
  facet normal 0.0492055 0.998789 0
    outer loop
      vertex 1.6 17.9214 17.5
      vertex 1.6 17.9214 7.5
      vertex 1.47821 17.9274 8.11229
    endloop
  endfacet
  facet normal 0.0492373 0.998787 -0
    outer loop
      vertex 1.76431 17.9133 0
      vertex 1.6 17.9214 7.5
      vertex 1.76431 17.9133 25
    endloop
  endfacet
  facet normal 0.0492086 0.998789 -6.29395e-07
    outer loop
      vertex 1.76431 17.9133 0
      vertex 1.47821 17.9274 6.88771
      vertex 1.6 17.9214 7.5
    endloop
  endfacet
  facet normal 0.0489709 0.9988 -1.05271e-05
    outer loop
      vertex 1.76431 17.9133 0
      vertex 1.13137 17.9444 6.36863
      vertex 1.47821 17.9274 6.88771
    endloop
  endfacet
  facet normal 0.0490671 0.998795 -9.41951e-07
    outer loop
      vertex 1.76431 17.9133 0
      vertex 0.612293 17.9699 6.02179
      vertex 1.13137 17.9444 6.36863
    endloop
  endfacet
  facet normal 0.0490991 0.998794 5.20036e-06
    outer loop
      vertex 1.76431 17.9133 0
      vertex 0 18 5.9
      vertex 0.612293 17.9699 6.02179
    endloop
  endfacet
  facet normal 0.0490818 0.998795 0
    outer loop
      vertex 0 18 5.9
      vertex 1.76431 17.9133 0
      vertex 0 18 0
    endloop
  endfacet
  facet normal -0.989176 -0.146736 0
    outer loop
      vertex 15.1766 1.49476 0
      vertex 14.957 2.97513 25
      vertex 14.957 2.97513 0
    endloop
  endfacet
  facet normal -0.989176 -0.146736 0
    outer loop
      vertex 14.957 2.97513 25
      vertex 15.1766 1.49476 0
      vertex 15.1766 1.49476 25
    endloop
  endfacet
  facet normal -0.998797 -0.0490458 0
    outer loop
      vertex 15.25 0 0
      vertex 15.1766 1.49476 25
      vertex 15.1766 1.49476 0
    endloop
  endfacet
  facet normal -0.998797 -0.0490458 0
    outer loop
      vertex 15.1766 1.49476 25
      vertex 15.25 0 0
      vertex 15.25 0 25
    endloop
  endfacet
  facet normal -0.970021 -0.243021 0
    outer loop
      vertex 14.957 2.97513 0
      vertex 14.5933 4.42684 25
      vertex 14.5933 4.42684 0
    endloop
  endfacet
  facet normal -0.970021 -0.243021 0
    outer loop
      vertex 14.5933 4.42684 25
      vertex 14.957 2.97513 0
      vertex 14.957 2.97513 25
    endloop
  endfacet
  facet normal -0.427574 -0.90398 0
    outer loop
      vertex 5.83592 14.0892 0
      vertex 7.1888 13.4493 25
      vertex 5.83592 14.0892 25
    endloop
  endfacet
  facet normal -0.427574 -0.90398 -0
    outer loop
      vertex 7.1888 13.4493 25
      vertex 5.83592 14.0892 0
      vertex 7.1888 13.4493 0
    endloop
  endfacet
  facet normal -0.514108 -0.857726 0
    outer loop
      vertex 7.1888 13.4493 0
      vertex 8.47245 12.6799 25
      vertex 7.1888 13.4493 25
    endloop
  endfacet
  facet normal -0.514108 -0.857726 -0
    outer loop
      vertex 8.47245 12.6799 25
      vertex 7.1888 13.4493 0
      vertex 8.47245 12.6799 0
    endloop
  endfacet
  facet normal -0.595699 -0.803208 0
    outer loop
      vertex 8.47245 12.6799 0
      vertex 9.6745 11.7884 25
      vertex 8.47245 12.6799 25
    endloop
  endfacet
  facet normal -0.595699 -0.803208 -0
    outer loop
      vertex 9.6745 11.7884 25
      vertex 8.47245 12.6799 0
      vertex 9.6745 11.7884 0
    endloop
  endfacet
  facet normal -0.803208 -0.595699 0
    outer loop
      vertex 12.6799 8.47245 0
      vertex 11.7884 9.6745 25
      vertex 11.7884 9.6745 0
    endloop
  endfacet
  facet normal -0.803208 -0.595699 0
    outer loop
      vertex 11.7884 9.6745 25
      vertex 12.6799 8.47245 0
      vertex 12.6799 8.47245 25
    endloop
  endfacet
  facet normal -0.671541 -0.740967 0
    outer loop
      vertex 9.6745 11.7884 0
      vertex 10.7834 10.7834 25
      vertex 9.6745 11.7884 25
    endloop
  endfacet
  facet normal -0.671541 -0.740967 -0
    outer loop
      vertex 10.7834 10.7834 25
      vertex 9.6745 11.7884 0
      vertex 10.7834 10.7834 0
    endloop
  endfacet
  facet normal -0.243021 -0.970021 0
    outer loop
      vertex 2.97513 14.957 0
      vertex 4.42684 14.5933 25
      vertex 2.97513 14.957 25
    endloop
  endfacet
  facet normal -0.243021 -0.970021 -0
    outer loop
      vertex 4.42684 14.5933 25
      vertex 2.97513 14.957 0
      vertex 4.42684 14.5933 0
    endloop
  endfacet
  facet normal -0.998752 0.0499412 0
    outer loop
      vertex 15.2495 -0.00999928 0
      vertex 15.25 0 25
      vertex 15.25 0 0
    endloop
  endfacet
  facet normal -0.998752 0.0499412 0
    outer loop
      vertex 15.25 0 25
      vertex 15.2495 -0.00999928 0
      vertex 15.2495 -0.00999928 25
    endloop
  endfacet
  facet normal -0.94156 -0.336844 0
    outer loop
      vertex 14.5933 4.42684 0
      vertex 14.0892 5.83592 25
      vertex 14.0892 5.83592 0
    endloop
  endfacet
  facet normal -0.94156 -0.336844 0
    outer loop
      vertex 14.0892 5.83592 25
      vertex 14.5933 4.42684 0
      vertex 14.5933 4.42684 25
    endloop
  endfacet
  facet normal -0.0490458 -0.998797 0
    outer loop
      vertex 0 15.25 19.1
      vertex 1.49476 15.1766 25
      vertex 0 15.25 25
    endloop
  endfacet
  facet normal -0.0490976 -0.998794 1.31528e-05
    outer loop
      vertex 0.612293 15.2199 18.9782
      vertex 1.49476 15.1766 25
      vertex 0 15.25 19.1
    endloop
  endfacet
  facet normal -0.0490613 -0.998796 7.82152e-06
    outer loop
      vertex 1.13137 15.1944 18.6314
      vertex 1.49476 15.1766 25
      vertex 0.612293 15.2199 18.9782
    endloop
  endfacet
  facet normal -0.0489528 -0.998801 1.61556e-06
    outer loop
      vertex 1.47821 15.1774 18.1123
      vertex 1.49476 15.1766 25
      vertex 1.13137 15.1944 18.6314
    endloop
  endfacet
  facet normal -0.048282 -0.998834 -0
    outer loop
      vertex 1.49476 15.1766 25
      vertex 1.47821 15.1774 18.1123
      vertex 1.49476 15.1766 18.0291
    endloop
  endfacet
  facet normal -0.0490458 -0.998797 0
    outer loop
      vertex 1.49476 15.1766 0
      vertex 0 15.25 5.9
      vertex 0 15.25 0
    endloop
  endfacet
  facet normal -0.0490976 -0.998794 -1.31529e-05
    outer loop
      vertex 0 15.25 5.9
      vertex 1.49476 15.1766 0
      vertex 0.612293 15.2199 6.02179
    endloop
  endfacet
  facet normal -0.0490613 -0.998796 -7.82145e-06
    outer loop
      vertex 0.612293 15.2199 6.02179
      vertex 1.49476 15.1766 0
      vertex 1.13137 15.1944 6.36863
    endloop
  endfacet
  facet normal -0.048282 -0.998834 0
    outer loop
      vertex 1.47821 15.1774 6.88771
      vertex 1.49476 15.1766 0
      vertex 1.49476 15.1766 6.97093
    endloop
  endfacet
  facet normal -0.0489528 -0.998801 -1.61556e-06
    outer loop
      vertex 1.13137 15.1944 6.36863
      vertex 1.49476 15.1766 0
      vertex 1.47821 15.1774 6.88771
    endloop
  endfacet
  facet normal -0.0491002 -0.998794 0
    outer loop
      vertex 0.612293 15.2199 8.97821
      vertex 0 15.25 10.5
      vertex 0 15.25 9.1
    endloop
  endfacet
  facet normal -0.0490458 -0.998797 2.19411e-05
    outer loop
      vertex 0 15.25 10.5
      vertex 0.612293 15.2199 8.97821
      vertex 1.49476 15.1766 10.5
    endloop
  endfacet
  facet normal -0.0490502 -0.998796 2.44909e-05
    outer loop
      vertex 1.13137 15.1944 8.63137
      vertex 1.49476 15.1766 10.5
      vertex 0.612293 15.2199 8.97821
    endloop
  endfacet
  facet normal -0.0489483 -0.998801 4.62908e-06
    outer loop
      vertex 1.47821 15.1774 8.11229
      vertex 1.49476 15.1766 10.5
      vertex 1.13137 15.1944 8.63137
    endloop
  endfacet
  facet normal -0.048282 -0.998834 -0
    outer loop
      vertex 1.49476 15.1766 10.5
      vertex 1.47821 15.1774 8.11229
      vertex 1.49476 15.1766 8.02907
    endloop
  endfacet
  facet normal -0.0491002 -0.998794 0
    outer loop
      vertex 0 15.25 12.5
      vertex 0.612293 15.2199 16.0218
      vertex 0 15.25 15.9
    endloop
  endfacet
  facet normal -0.0490458 -0.998797 -9.48088e-06
    outer loop
      vertex 1.49476 15.1766 12.5
      vertex 0.612293 15.2199 16.0218
      vertex 0 15.25 12.5
    endloop
  endfacet
  facet normal -0.0490581 -0.998796 -1.25775e-05
    outer loop
      vertex 0.612293 15.2199 16.0218
      vertex 1.49476 15.1766 12.5
      vertex 1.13137 15.1944 16.3686
    endloop
  endfacet
  facet normal -0.048282 -0.998834 0
    outer loop
      vertex 1.47821 15.1774 16.8877
      vertex 1.49476 15.1766 12.5
      vertex 1.49476 15.1766 16.9709
    endloop
  endfacet
  facet normal -0.0489514 -0.998801 -2.53091e-06
    outer loop
      vertex 1.13137 15.1944 16.3686
      vertex 1.49476 15.1766 12.5
      vertex 1.47821 15.1774 16.8877
    endloop
  endfacet
  facet normal -0.90398 -0.427574 0
    outer loop
      vertex 14.0892 5.83592 0
      vertex 13.4493 7.1888 25
      vertex 13.4493 7.1888 0
    endloop
  endfacet
  facet normal -0.90398 -0.427574 0
    outer loop
      vertex 13.4493 7.1888 25
      vertex 14.0892 5.83592 0
      vertex 14.0892 5.83592 25
    endloop
  endfacet
  facet normal -0.146835 -0.989161 -0
    outer loop
      vertex 1.49476 15.1766 10.5
      vertex 1.49476 15.1766 8.02907
      vertex 2 15.1016 10.5
    endloop
  endfacet
  facet normal -0.146736 -0.989176 0
    outer loop
      vertex 1.49476 15.1766 18.0291
      vertex 2.97513 14.957 25
      vertex 1.49476 15.1766 25
    endloop
  endfacet
  facet normal -0.146685 -0.989183 -1.10416e-05
    outer loop
      vertex 1.6 15.161 17.5
      vertex 2.97513 14.957 25
      vertex 1.49476 15.1766 18.0291
    endloop
  endfacet
  facet normal -0.146835 -0.989161 0
    outer loop
      vertex 2 15.1016 12.5
      vertex 1.49476 15.1766 16.9709
      vertex 1.49476 15.1766 12.5
    endloop
  endfacet
  facet normal -0.146705 -0.98918 1.50903e-05
    outer loop
      vertex 1.49476 15.1766 16.9709
      vertex 2 15.1016 12.5
      vertex 1.6 15.161 17.5
    endloop
  endfacet
  facet normal -0.146788 -0.989168 8.28563e-06
    outer loop
      vertex 1.6 15.161 17.5
      vertex 2 15.1016 12.5
      vertex 2.97513 14.957 25
    endloop
  endfacet
  facet normal -0.146684 -0.989183 0
    outer loop
      vertex 2.97513 14.957 0
      vertex 2 15.1016 12.5
      vertex 2 15.1016 10.5
    endloop
  endfacet
  facet normal -0.146734 -0.989176 -2.11135e-05
    outer loop
      vertex 1.6 15.161 7.5
      vertex 2 15.1016 10.5
      vertex 1.49476 15.1766 8.02907
    endloop
  endfacet
  facet normal -0.146736 -0.989176 0
    outer loop
      vertex 2.97513 14.957 0
      vertex 1.49476 15.1766 6.97093
      vertex 1.49476 15.1766 0
    endloop
  endfacet
  facet normal -0.146685 -0.989183 1.10419e-05
    outer loop
      vertex 1.49476 15.1766 6.97093
      vertex 2.97513 14.957 0
      vertex 1.6 15.161 7.5
    endloop
  endfacet
  facet normal -0.146805 -0.989165 -1.14837e-05
    outer loop
      vertex 1.6 15.161 7.5
      vertex 2.97513 14.957 0
      vertex 2 15.1016 10.5
    endloop
  endfacet
  facet normal -0.146684 -0.989183 0
    outer loop
      vertex 2 15.1016 12.5
      vertex 2.97513 14.957 0
      vertex 2.97513 14.957 25
    endloop
  endfacet
  facet normal -0.857726 -0.514108 0
    outer loop
      vertex 13.4493 7.1888 0
      vertex 12.6799 8.47245 25
      vertex 12.6799 8.47245 0
    endloop
  endfacet
  facet normal -0.857726 -0.514108 0
    outer loop
      vertex 12.6799 8.47245 25
      vertex 13.4493 7.1888 0
      vertex 13.4493 7.1888 25
    endloop
  endfacet
  facet normal -0.740967 -0.671541 0
    outer loop
      vertex 11.7884 9.6745 0
      vertex 10.7834 10.7834 25
      vertex 10.7834 10.7834 0
    endloop
  endfacet
  facet normal -0.740967 -0.671541 0
    outer loop
      vertex 10.7834 10.7834 25
      vertex 11.7884 9.6745 0
      vertex 11.7884 9.6745 25
    endloop
  endfacet
  facet normal -0.336844 -0.94156 0
    outer loop
      vertex 4.42684 14.5933 0
      vertex 5.83592 14.0892 25
      vertex 4.42684 14.5933 25
    endloop
  endfacet
  facet normal -0.336844 -0.94156 -0
    outer loop
      vertex 5.83592 14.0892 25
      vertex 4.42684 14.5933 0
      vertex 5.83592 14.0892 0
    endloop
  endfacet
  facet normal -1 0 0
    outer loop
      vertex 2 15.1016 10.5
      vertex 2 16.5 12.5
      vertex 2 16.5 10.5
    endloop
  endfacet
  facet normal -1 -0 0
    outer loop
      vertex 2 16.5 12.5
      vertex 2 15.1016 10.5
      vertex 2 15.1016 12.5
    endloop
  endfacet
  facet normal 0 0 -1
    outer loop
      vertex 1.49476 15.1766 12.5
      vertex 2 16.5 12.5
      vertex 2 15.1016 12.5
    endloop
  endfacet
  facet normal 0 0 -1
    outer loop
      vertex 0 16.5 12.5
      vertex 1.49476 15.1766 12.5
      vertex 0 15.25 12.5
    endloop
  endfacet
  facet normal 0 0 -1
    outer loop
      vertex 1.49476 15.1766 12.5
      vertex 0 16.5 12.5
      vertex 2 16.5 12.5
    endloop
  endfacet
  facet normal 0 0 1
    outer loop
      vertex 2 16.5 10.5
      vertex 1.49476 15.1766 10.5
      vertex 2 15.1016 10.5
    endloop
  endfacet
  facet normal -0 0 1
    outer loop
      vertex 0 16.5 10.5
      vertex 1.49476 15.1766 10.5
      vertex 2 16.5 10.5
    endloop
  endfacet
  facet normal 0 0 1
    outer loop
      vertex 1.49476 15.1766 10.5
      vertex 0 16.5 10.5
      vertex 0 15.25 10.5
    endloop
  endfacet
  facet normal 0 -1 0
    outer loop
      vertex 0 16.5 10.5
      vertex 2 16.5 12.5
      vertex 0 16.5 12.5
    endloop
  endfacet
  facet normal 0 -1 -0
    outer loop
      vertex 2 16.5 12.5
      vertex 0 16.5 10.5
      vertex 2 16.5 10.5
    endloop
  endfacet
  facet normal -1 0 0
    outer loop
      vertex 0 15.25 19.1
      vertex 0 18 25
      vertex 0 18 19.1
    endloop
  endfacet
  facet normal -1 -0 0
    outer loop
      vertex 0 18 25
      vertex 0 15.25 19.1
      vertex 0 15.25 25
    endloop
  endfacet
  facet normal -1 0 0
    outer loop
      vertex 0 15.25 0
      vertex 0 18 5.9
      vertex 0 18 0
    endloop
  endfacet
  facet normal -1 -0 0
    outer loop
      vertex 0 18 5.9
      vertex 0 15.25 0
      vertex 0 15.25 5.9
    endloop
  endfacet
  facet normal -1 0 0
    outer loop
      vertex 0 16.5 12.5
      vertex 0 18 9.1
      vertex 0 16.5 10.5
    endloop
  endfacet
  facet normal -1 0 0
    outer loop
      vertex 0 15.25 9.1
      vertex 0 16.5 10.5
      vertex 0 18 9.1
    endloop
  endfacet
  facet normal -1 -0 0
    outer loop
      vertex 0 16.5 10.5
      vertex 0 15.25 9.1
      vertex 0 15.25 10.5
    endloop
  endfacet
  facet normal -1 0 0
    outer loop
      vertex 0 18 9.1
      vertex 0 16.5 12.5
      vertex 0 18 15.9
    endloop
  endfacet
  facet normal -1 0 0
    outer loop
      vertex 0 15.25 15.9
      vertex 0 16.5 12.5
      vertex 0 15.25 12.5
    endloop
  endfacet
  facet normal -1 0 0
    outer loop
      vertex 0 16.5 12.5
      vertex 0 15.25 15.9
      vertex 0 18 15.9
    endloop
  endfacet
  facet normal 0 -1 0
    outer loop
      vertex 15.2495 -0.00999928 0
      vertex 17.9995 -0.00999928 25
      vertex 15.2495 -0.00999928 25
    endloop
  endfacet
  facet normal 0 -1 -0
    outer loop
      vertex 17.9995 -0.00999928 25
      vertex 15.2495 -0.00999928 0
      vertex 17.9995 -0.00999928 0
    endloop
  endfacet
endsolid OpenSCAD_Model
