solid OpenSCAD_Model
  facet normal 0.989178 0.146719 0
    outer loop
      vertex 49.6199 4.88713 8
      vertex 48.902 9.7272 0
      vertex 48.902 9.7272 8
    endloop
  endfacet
  facet normal 0.989178 0.146719 0
    outer loop
      vertex 48.902 9.7272 0
      vertex 49.6199 4.88713 8
      vertex 49.6199 4.88713 0
    endloop
  endfacet
  facet normal 0.998795 0.0490699 0
    outer loop
      vertex 49.86 0 8
      vertex 49.6199 4.88713 0
      vertex 49.6199 4.88713 8
    endloop
  endfacet
  facet normal 0.998795 0.0490699 0
    outer loop
      vertex 49.6199 4.88713 0
      vertex 49.86 0 8
      vertex 49.86 0 0
    endloop
  endfacet
  facet normal 0.970027 0.242997 0
    outer loop
      vertex 48.902 9.7272 8
      vertex 47.713 14.4736 0
      vertex 47.713 14.4736 8
    endloop
  endfacet
  facet normal 0.970027 0.242997 0
    outer loop
      vertex 47.713 14.4736 0
      vertex 48.902 9.7272 8
      vertex 48.902 9.7272 0
    endloop
  endfacet
  facet normal -0.857731 -0.514099 0
    outer loop
      vertex -41.4571 -27.7007 0
      vertex -43.9726 -23.5038 8
      vertex -43.9726 -23.5038 0
    endloop
  endfacet
  facet normal -0.857731 -0.514099 0
    outer loop
      vertex -43.9726 -23.5038 8
      vertex -41.4571 -27.7007 0
      vertex -41.4571 -27.7007 8
    endloop
  endfacet
  facet normal -0.427552 0.903991 0
    outer loop
      vertex -19.0806 46.0646 0
      vertex -23.5038 43.9726 8
      vertex -19.0806 46.0646 8
    endloop
  endfacet
  facet normal -0.427552 0.903991 0
    outer loop
      vertex -23.5038 43.9726 8
      vertex -19.0806 46.0646 0
      vertex -23.5038 43.9726 0
    endloop
  endfacet
  facet normal 0.146719 -0.989178 0
    outer loop
      vertex 4.88713 -49.6199 0
      vertex 9.7272 -48.902 8
      vertex 4.88713 -49.6199 8
    endloop
  endfacet
  facet normal 0.146719 -0.989178 0
    outer loop
      vertex 9.7272 -48.902 8
      vertex 4.88713 -49.6199 0
      vertex 9.7272 -48.902 0
    endloop
  endfacet
  facet normal 0.336888 0.941545 -0
    outer loop
      vertex 19.0806 46.0646 0
      vertex 14.4736 47.713 8
      vertex 19.0806 46.0646 8
    endloop
  endfacet
  facet normal 0.336888 0.941545 0
    outer loop
      vertex 14.4736 47.713 8
      vertex 19.0806 46.0646 0
      vertex 14.4736 47.713 0
    endloop
  endfacet
  facet normal 0.903991 -0.427552 0
    outer loop
      vertex 43.9726 -23.5038 8
      vertex 46.0646 -19.0806 0
      vertex 46.0646 -19.0806 8
    endloop
  endfacet
  facet normal 0.903991 -0.427552 0
    outer loop
      vertex 46.0646 -19.0806 0
      vertex 43.9726 -23.5038 8
      vertex 43.9726 -23.5038 0
    endloop
  endfacet
  facet normal 0.998795 -0.0490699 0
    outer loop
      vertex 49.6199 -4.88713 8
      vertex 49.86 0 0
      vertex 49.86 0 8
    endloop
  endfacet
  facet normal 0.998795 -0.0490699 0
    outer loop
      vertex 49.86 0 0
      vertex 49.6199 -4.88713 8
      vertex 49.6199 -4.88713 0
    endloop
  endfacet
  facet normal -0.427552 -0.903991 0
    outer loop
      vertex -23.5038 -43.9726 0
      vertex -19.0806 -46.0646 8
      vertex -23.5038 -43.9726 8
    endloop
  endfacet
  facet normal -0.427552 -0.903991 -0
    outer loop
      vertex -19.0806 -46.0646 8
      vertex -23.5038 -43.9726 0
      vertex -19.0806 -46.0646 0
    endloop
  endfacet
  facet normal 0.803204 -0.595704 0
    outer loop
      vertex 38.5423 -31.6308 8
      vertex 41.4571 -27.7007 0
      vertex 41.4571 -27.7007 8
    endloop
  endfacet
  facet normal 0.803204 -0.595704 0
    outer loop
      vertex 41.4571 -27.7007 0
      vertex 38.5423 -31.6308 8
      vertex 38.5423 -31.6308 0
    endloop
  endfacet
  facet normal -0.514099 0.857731 0
    outer loop
      vertex -23.5038 43.9726 0
      vertex -27.7007 41.4571 8
      vertex -23.5038 43.9726 8
    endloop
  endfacet
  facet normal -0.514099 0.857731 0
    outer loop
      vertex -27.7007 41.4571 8
      vertex -23.5038 43.9726 0
      vertex -27.7007 41.4571 0
    endloop
  endfacet
  facet normal -0.803204 -0.595704 0
    outer loop
      vertex -38.5423 -31.6308 0
      vertex -41.4571 -27.7007 8
      vertex -41.4571 -27.7007 0
    endloop
  endfacet
  facet normal -0.803204 -0.595704 0
    outer loop
      vertex -41.4571 -27.7007 8
      vertex -38.5423 -31.6308 0
      vertex -38.5423 -31.6308 8
    endloop
  endfacet
  facet normal -0.740947 0.671563 0
    outer loop
      vertex -38.5423 31.6308 0
      vertex -35.2563 35.2563 8
      vertex -35.2563 35.2563 0
    endloop
  endfacet
  facet normal -0.740947 0.671563 0
    outer loop
      vertex -35.2563 35.2563 8
      vertex -38.5423 31.6308 0
      vertex -38.5423 31.6308 8
    endloop
  endfacet
  facet normal 0.242997 -0.970027 0
    outer loop
      vertex 9.7272 -48.902 0
      vertex 14.4736 -47.713 8
      vertex 9.7272 -48.902 8
    endloop
  endfacet
  facet normal 0.242997 -0.970027 0
    outer loop
      vertex 14.4736 -47.713 8
      vertex 9.7272 -48.902 0
      vertex 14.4736 -47.713 0
    endloop
  endfacet
  facet normal 0.514099 -0.857731 0
    outer loop
      vertex 23.5038 -43.9726 0
      vertex 27.7007 -41.4571 8
      vertex 23.5038 -43.9726 8
    endloop
  endfacet
  facet normal 0.514099 -0.857731 0
    outer loop
      vertex 27.7007 -41.4571 8
      vertex 23.5038 -43.9726 0
      vertex 27.7007 -41.4571 0
    endloop
  endfacet
  facet normal 0.941545 -0.336888 0
    outer loop
      vertex 46.0646 -19.0806 8
      vertex 47.713 -14.4736 0
      vertex 47.713 -14.4736 8
    endloop
  endfacet
  facet normal 0.941545 -0.336888 0
    outer loop
      vertex 47.713 -14.4736 0
      vertex 46.0646 -19.0806 8
      vertex 46.0646 -19.0806 0
    endloop
  endfacet
  facet normal 0.427552 -0.903991 0
    outer loop
      vertex 19.0806 -46.0646 0
      vertex 23.5038 -43.9726 8
      vertex 19.0806 -46.0646 8
    endloop
  endfacet
  facet normal 0.427552 -0.903991 0
    outer loop
      vertex 23.5038 -43.9726 8
      vertex 19.0806 -46.0646 0
      vertex 23.5038 -43.9726 0
    endloop
  endfacet
  facet normal 0.0490699 0.998795 -0
    outer loop
      vertex 4.88713 49.6199 0
      vertex 0 49.86 8
      vertex 4.88713 49.6199 8
    endloop
  endfacet
  facet normal 0.0490699 0.998795 0
    outer loop
      vertex 0 49.86 8
      vertex 4.88713 49.6199 0
      vertex 0 49.86 0
    endloop
  endfacet
  facet normal 0.146719 0.989178 -0
    outer loop
      vertex 9.7272 48.902 0
      vertex 4.88713 49.6199 8
      vertex 9.7272 48.902 8
    endloop
  endfacet
  facet normal 0.146719 0.989178 0
    outer loop
      vertex 4.88713 49.6199 8
      vertex 9.7272 48.902 0
      vertex 4.88713 49.6199 0
    endloop
  endfacet
  facet normal -0.146719 0.989178 0
    outer loop
      vertex -4.88713 49.6199 0
      vertex -9.7272 48.902 8
      vertex -4.88713 49.6199 8
    endloop
  endfacet
  facet normal -0.146719 0.989178 0
    outer loop
      vertex -9.7272 48.902 8
      vertex -4.88713 49.6199 0
      vertex -9.7272 48.902 0
    endloop
  endfacet
  facet normal -0.941545 0.336888 0
    outer loop
      vertex -47.713 14.4736 0
      vertex -46.0646 19.0806 8
      vertex -46.0646 19.0806 0
    endloop
  endfacet
  facet normal -0.941545 0.336888 0
    outer loop
      vertex -46.0646 19.0806 8
      vertex -47.713 14.4736 0
      vertex -47.713 14.4736 8
    endloop
  endfacet
  facet normal -0.740947 -0.671563 0
    outer loop
      vertex -35.2563 -35.2563 0
      vertex -38.5423 -31.6308 8
      vertex -38.5423 -31.6308 0
    endloop
  endfacet
  facet normal -0.740947 -0.671563 0
    outer loop
      vertex -38.5423 -31.6308 8
      vertex -35.2563 -35.2563 0
      vertex -35.2563 -35.2563 8
    endloop
  endfacet
  facet normal -0.970027 0.242997 0
    outer loop
      vertex -48.902 9.7272 0
      vertex -47.713 14.4736 8
      vertex -47.713 14.4736 0
    endloop
  endfacet
  facet normal -0.970027 0.242997 0
    outer loop
      vertex -47.713 14.4736 8
      vertex -48.902 9.7272 0
      vertex -48.902 9.7272 8
    endloop
  endfacet
  facet normal -0.0490699 -0.998795 0
    outer loop
      vertex -4.88713 -49.6199 0
      vertex 0 -49.86 8
      vertex -4.88713 -49.6199 8
    endloop
  endfacet
  facet normal -0.0490699 -0.998795 -0
    outer loop
      vertex 0 -49.86 8
      vertex -4.88713 -49.6199 0
      vertex 0 -49.86 0
    endloop
  endfacet
  facet normal -0.242997 0.970027 0
    outer loop
      vertex -9.7272 48.902 0
      vertex -14.4736 47.713 8
      vertex -9.7272 48.902 8
    endloop
  endfacet
  facet normal -0.242997 0.970027 0
    outer loop
      vertex -14.4736 47.713 8
      vertex -9.7272 48.902 0
      vertex -14.4736 47.713 0
    endloop
  endfacet
  facet normal 0.427552 0.903991 -0
    outer loop
      vertex 23.5038 43.9726 0
      vertex 19.0806 46.0646 8
      vertex 23.5038 43.9726 8
    endloop
  endfacet
  facet normal 0.427552 0.903991 0
    outer loop
      vertex 19.0806 46.0646 8
      vertex 23.5038 43.9726 0
      vertex 19.0806 46.0646 0
    endloop
  endfacet
  facet normal 0.0490699 -0.998795 0
    outer loop
      vertex 0 -49.86 0
      vertex 4.88713 -49.6199 8
      vertex 0 -49.86 8
    endloop
  endfacet
  facet normal 0.0490699 -0.998795 0
    outer loop
      vertex 4.88713 -49.6199 8
      vertex 0 -49.86 0
      vertex 4.88713 -49.6199 0
    endloop
  endfacet
  facet normal -0.970027 -0.242997 0
    outer loop
      vertex -47.713 -14.4736 0
      vertex -48.902 -9.7272 8
      vertex -48.902 -9.7272 0
    endloop
  endfacet
  facet normal -0.970027 -0.242997 0
    outer loop
      vertex -48.902 -9.7272 8
      vertex -47.713 -14.4736 0
      vertex -47.713 -14.4736 8
    endloop
  endfacet
  facet normal 0.803204 0.595704 0
    outer loop
      vertex 41.4571 27.7007 8
      vertex 38.5423 31.6308 0
      vertex 38.5423 31.6308 8
    endloop
  endfacet
  facet normal 0.803204 0.595704 0
    outer loop
      vertex 38.5423 31.6308 0
      vertex 41.4571 27.7007 8
      vertex 41.4571 27.7007 0
    endloop
  endfacet
  facet normal -0.146719 -0.989178 0
    outer loop
      vertex -9.7272 -48.902 0
      vertex -4.88713 -49.6199 8
      vertex -9.7272 -48.902 8
    endloop
  endfacet
  facet normal -0.146719 -0.989178 -0
    outer loop
      vertex -4.88713 -49.6199 8
      vertex -9.7272 -48.902 0
      vertex -4.88713 -49.6199 0
    endloop
  endfacet
  facet normal 0.857731 -0.514099 0
    outer loop
      vertex 41.4571 -27.7007 8
      vertex 43.9726 -23.5038 0
      vertex 43.9726 -23.5038 8
    endloop
  endfacet
  facet normal 0.857731 -0.514099 0
    outer loop
      vertex 43.9726 -23.5038 0
      vertex 41.4571 -27.7007 8
      vertex 41.4571 -27.7007 0
    endloop
  endfacet
  facet normal -0.941545 -0.336888 0
    outer loop
      vertex -46.0646 -19.0806 0
      vertex -47.713 -14.4736 8
      vertex -47.713 -14.4736 0
    endloop
  endfacet
  facet normal -0.941545 -0.336888 0
    outer loop
      vertex -47.713 -14.4736 8
      vertex -46.0646 -19.0806 0
      vertex -46.0646 -19.0806 8
    endloop
  endfacet
  facet normal -0.903991 0.427552 0
    outer loop
      vertex -46.0646 19.0806 0
      vertex -43.9726 23.5038 8
      vertex -43.9726 23.5038 0
    endloop
  endfacet
  facet normal -0.903991 0.427552 0
    outer loop
      vertex -43.9726 23.5038 8
      vertex -46.0646 19.0806 0
      vertex -46.0646 19.0806 8
    endloop
  endfacet
  facet normal -0.998795 0.0490699 0
    outer loop
      vertex -49.86 0 0
      vertex -49.6199 4.88713 8
      vertex -49.6199 4.88713 0
    endloop
  endfacet
  facet normal -0.998795 0.0490699 0
    outer loop
      vertex -49.6199 4.88713 8
      vertex -49.86 0 0
      vertex -49.86 0 8
    endloop
  endfacet
  facet normal 0.336888 -0.941545 0
    outer loop
      vertex 14.4736 -47.713 0
      vertex 19.0806 -46.0646 8
      vertex 14.4736 -47.713 8
    endloop
  endfacet
  facet normal 0.336888 -0.941545 0
    outer loop
      vertex 19.0806 -46.0646 8
      vertex 14.4736 -47.713 0
      vertex 19.0806 -46.0646 0
    endloop
  endfacet
  facet normal 0.671563 -0.740947 0
    outer loop
      vertex 31.6308 -38.5423 0
      vertex 35.2563 -35.2563 8
      vertex 31.6308 -38.5423 8
    endloop
  endfacet
  facet normal 0.671563 -0.740947 0
    outer loop
      vertex 35.2563 -35.2563 8
      vertex 31.6308 -38.5423 0
      vertex 35.2563 -35.2563 0
    endloop
  endfacet
  facet normal 0.970027 -0.242997 0
    outer loop
      vertex 47.713 -14.4736 8
      vertex 48.902 -9.7272 0
      vertex 48.902 -9.7272 8
    endloop
  endfacet
  facet normal 0.970027 -0.242997 0
    outer loop
      vertex 48.902 -9.7272 0
      vertex 47.713 -14.4736 8
      vertex 47.713 -14.4736 0
    endloop
  endfacet
  facet normal 0.740947 -0.671563 0
    outer loop
      vertex 35.2563 -35.2563 8
      vertex 38.5423 -31.6308 0
      vertex 38.5423 -31.6308 8
    endloop
  endfacet
  facet normal 0.740947 -0.671563 0
    outer loop
      vertex 38.5423 -31.6308 0
      vertex 35.2563 -35.2563 8
      vertex 35.2563 -35.2563 0
    endloop
  endfacet
  facet normal -0.989178 0.146719 0
    outer loop
      vertex -49.6199 4.88713 0
      vertex -48.902 9.7272 8
      vertex -48.902 9.7272 0
    endloop
  endfacet
  facet normal -0.989178 0.146719 0
    outer loop
      vertex -48.902 9.7272 8
      vertex -49.6199 4.88713 0
      vertex -49.6199 4.88713 8
    endloop
  endfacet
  facet normal 0.514099 0.857731 -0
    outer loop
      vertex 27.7007 41.4571 0
      vertex 23.5038 43.9726 8
      vertex 27.7007 41.4571 8
    endloop
  endfacet
  facet normal 0.514099 0.857731 0
    outer loop
      vertex 23.5038 43.9726 8
      vertex 27.7007 41.4571 0
      vertex 23.5038 43.9726 0
    endloop
  endfacet
  facet normal 0.941545 0.336888 0
    outer loop
      vertex 47.713 14.4736 8
      vertex 46.0646 19.0806 0
      vertex 46.0646 19.0806 8
    endloop
  endfacet
  facet normal 0.941545 0.336888 0
    outer loop
      vertex 46.0646 19.0806 0
      vertex 47.713 14.4736 8
      vertex 47.713 14.4736 0
    endloop
  endfacet
  facet normal 0.595704 0.803204 -0
    outer loop
      vertex 31.6308 38.5423 0
      vertex 27.7007 41.4571 8
      vertex 31.6308 38.5423 8
    endloop
  endfacet
  facet normal 0.595704 0.803204 0
    outer loop
      vertex 27.7007 41.4571 8
      vertex 31.6308 38.5423 0
      vertex 27.7007 41.4571 0
    endloop
  endfacet
  facet normal 0.903991 0.427552 0
    outer loop
      vertex 46.0646 19.0806 8
      vertex 43.9726 23.5038 0
      vertex 43.9726 23.5038 8
    endloop
  endfacet
  facet normal 0.903991 0.427552 0
    outer loop
      vertex 43.9726 23.5038 0
      vertex 46.0646 19.0806 8
      vertex 46.0646 19.0806 0
    endloop
  endfacet
  facet normal 0.989178 -0.146719 0
    outer loop
      vertex 48.902 -9.7272 8
      vertex 49.6199 -4.88713 0
      vertex 49.6199 -4.88713 8
    endloop
  endfacet
  facet normal 0.989178 -0.146719 0
    outer loop
      vertex 49.6199 -4.88713 0
      vertex 48.902 -9.7272 8
      vertex 48.902 -9.7272 0
    endloop
  endfacet
  facet normal -0.989178 -0.146719 0
    outer loop
      vertex -48.902 -9.7272 0
      vertex -49.6199 -4.88713 8
      vertex -49.6199 -4.88713 0
    endloop
  endfacet
  facet normal -0.989178 -0.146719 0
    outer loop
      vertex -49.6199 -4.88713 8
      vertex -48.902 -9.7272 0
      vertex -48.902 -9.7272 8
    endloop
  endfacet
  facet normal 0.857731 0.514099 0
    outer loop
      vertex 43.9726 23.5038 8
      vertex 41.4571 27.7007 0
      vertex 41.4571 27.7007 8
    endloop
  endfacet
  facet normal 0.857731 0.514099 0
    outer loop
      vertex 41.4571 27.7007 0
      vertex 43.9726 23.5038 8
      vertex 43.9726 23.5038 0
    endloop
  endfacet
  facet normal -0.0490699 0.998795 0
    outer loop
      vertex 0 49.86 0
      vertex -4.88713 49.6199 8
      vertex 0 49.86 8
    endloop
  endfacet
  facet normal -0.0490699 0.998795 0
    outer loop
      vertex -4.88713 49.6199 8
      vertex 0 49.86 0
      vertex -4.88713 49.6199 0
    endloop
  endfacet
  facet normal -0.514099 -0.857731 0
    outer loop
      vertex -27.7007 -41.4571 0
      vertex -23.5038 -43.9726 8
      vertex -27.7007 -41.4571 8
    endloop
  endfacet
  facet normal -0.514099 -0.857731 -0
    outer loop
      vertex -23.5038 -43.9726 8
      vertex -27.7007 -41.4571 0
      vertex -23.5038 -43.9726 0
    endloop
  endfacet
  facet normal -0.336888 0.941545 0
    outer loop
      vertex -14.4736 47.713 0
      vertex -19.0806 46.0646 8
      vertex -14.4736 47.713 8
    endloop
  endfacet
  facet normal -0.336888 0.941545 0
    outer loop
      vertex -19.0806 46.0646 8
      vertex -14.4736 47.713 0
      vertex -19.0806 46.0646 0
    endloop
  endfacet
  facet normal -0.671563 0.740947 0
    outer loop
      vertex -31.6308 38.5423 0
      vertex -35.2563 35.2563 8
      vertex -31.6308 38.5423 8
    endloop
  endfacet
  facet normal -0.671563 0.740947 0
    outer loop
      vertex -35.2563 35.2563 8
      vertex -31.6308 38.5423 0
      vertex -35.2563 35.2563 0
    endloop
  endfacet
  facet normal -0.857731 0.514099 0
    outer loop
      vertex -43.9726 23.5038 0
      vertex -41.4571 27.7007 8
      vertex -41.4571 27.7007 0
    endloop
  endfacet
  facet normal -0.857731 0.514099 0
    outer loop
      vertex -41.4571 27.7007 8
      vertex -43.9726 23.5038 0
      vertex -43.9726 23.5038 8
    endloop
  endfacet
  facet normal -0.595704 0.803204 0
    outer loop
      vertex -27.7007 41.4571 0
      vertex -31.6308 38.5423 8
      vertex -27.7007 41.4571 8
    endloop
  endfacet
  facet normal -0.595704 0.803204 0
    outer loop
      vertex -31.6308 38.5423 8
      vertex -27.7007 41.4571 0
      vertex -31.6308 38.5423 0
    endloop
  endfacet
  facet normal 0.671563 0.740947 -0
    outer loop
      vertex 35.2563 35.2563 0
      vertex 31.6308 38.5423 8
      vertex 35.2563 35.2563 8
    endloop
  endfacet
  facet normal 0.671563 0.740947 0
    outer loop
      vertex 31.6308 38.5423 8
      vertex 35.2563 35.2563 0
      vertex 31.6308 38.5423 0
    endloop
  endfacet
  facet normal 0.740947 0.671563 0
    outer loop
      vertex 38.5423 31.6308 8
      vertex 35.2563 35.2563 0
      vertex 35.2563 35.2563 8
    endloop
  endfacet
  facet normal 0.740947 0.671563 0
    outer loop
      vertex 35.2563 35.2563 0
      vertex 38.5423 31.6308 8
      vertex 38.5423 31.6308 0
    endloop
  endfacet
  facet normal -0.803204 0.595704 0
    outer loop
      vertex -41.4571 27.7007 0
      vertex -38.5423 31.6308 8
      vertex -38.5423 31.6308 0
    endloop
  endfacet
  facet normal -0.803204 0.595704 0
    outer loop
      vertex -38.5423 31.6308 8
      vertex -41.4571 27.7007 0
      vertex -41.4571 27.7007 8
    endloop
  endfacet
  facet normal -0.998795 -0.0490699 0
    outer loop
      vertex -49.6199 -4.88713 0
      vertex -49.86 0 8
      vertex -49.86 0 0
    endloop
  endfacet
  facet normal -0.998795 -0.0490699 0
    outer loop
      vertex -49.86 0 8
      vertex -49.6199 -4.88713 0
      vertex -49.6199 -4.88713 8
    endloop
  endfacet
  facet normal -0.336888 -0.941545 0
    outer loop
      vertex -19.0806 -46.0646 0
      vertex -14.4736 -47.713 8
      vertex -19.0806 -46.0646 8
    endloop
  endfacet
  facet normal -0.336888 -0.941545 -0
    outer loop
      vertex -14.4736 -47.713 8
      vertex -19.0806 -46.0646 0
      vertex -14.4736 -47.713 0
    endloop
  endfacet
  facet normal -0.671563 -0.740947 0
    outer loop
      vertex -35.2563 -35.2563 0
      vertex -31.6308 -38.5423 8
      vertex -35.2563 -35.2563 8
    endloop
  endfacet
  facet normal -0.671563 -0.740947 -0
    outer loop
      vertex -31.6308 -38.5423 8
      vertex -35.2563 -35.2563 0
      vertex -31.6308 -38.5423 0
    endloop
  endfacet
  facet normal 0.595704 -0.803204 0
    outer loop
      vertex 27.7007 -41.4571 0
      vertex 31.6308 -38.5423 8
      vertex 27.7007 -41.4571 8
    endloop
  endfacet
  facet normal 0.595704 -0.803204 0
    outer loop
      vertex 31.6308 -38.5423 8
      vertex 27.7007 -41.4571 0
      vertex 31.6308 -38.5423 0
    endloop
  endfacet
  facet normal -0.903991 -0.427552 0
    outer loop
      vertex -43.9726 -23.5038 0
      vertex -46.0646 -19.0806 8
      vertex -46.0646 -19.0806 0
    endloop
  endfacet
  facet normal -0.903991 -0.427552 0
    outer loop
      vertex -46.0646 -19.0806 8
      vertex -43.9726 -23.5038 0
      vertex -43.9726 -23.5038 8
    endloop
  endfacet
  facet normal -0.242997 -0.970027 0
    outer loop
      vertex -14.4736 -47.713 0
      vertex -9.7272 -48.902 8
      vertex -14.4736 -47.713 8
    endloop
  endfacet
  facet normal -0.242997 -0.970027 -0
    outer loop
      vertex -9.7272 -48.902 8
      vertex -14.4736 -47.713 0
      vertex -9.7272 -48.902 0
    endloop
  endfacet
  facet normal 0 0 1
    outer loop
      vertex 33.86 0 8
      vertex 49.86 0 8
      vertex 49.6199 4.88713 8
    endloop
  endfacet
  facet normal 0 0 1
    outer loop
      vertex 33.697 3.31886 8
      vertex 49.6199 4.88713 8
      vertex 48.902 9.7272 8
    endloop
  endfacet
  facet normal 0 0 1
    outer loop
      vertex 49.86 0 8
      vertex 33.86 0 8
      vertex 49.6199 -4.88713 8
    endloop
  endfacet
  facet normal 0 0 1
    outer loop
      vertex 33.2094 6.60576 8
      vertex 48.902 9.7272 8
      vertex 47.713 14.4736 8
    endloop
  endfacet
  facet normal -0 0 1
    outer loop
      vertex 33.697 -3.31886 8
      vertex 49.6199 -4.88713 8
      vertex 33.86 0 8
    endloop
  endfacet
  facet normal 0 0 1
    outer loop
      vertex 32.402 9.82904 8
      vertex 47.713 14.4736 8
      vertex 46.0646 19.0806 8
    endloop
  endfacet
  facet normal 0 0 1
    outer loop
      vertex 49.6199 -4.88713 8
      vertex 33.697 -3.31886 8
      vertex 48.902 -9.7272 8
    endloop
  endfacet
  facet normal 0 0 1
    outer loop
      vertex 31.2826 12.9577 8
      vertex 46.0646 19.0806 8
      vertex 43.9726 23.5038 8
    endloop
  endfacet
  facet normal -0 0 1
    outer loop
      vertex 33.2094 -6.60576 8
      vertex 48.902 -9.7272 8
      vertex 33.697 -3.31886 8
    endloop
  endfacet
  facet normal 0 0 1
    outer loop
      vertex 29.8619 15.9615 8
      vertex 43.9726 23.5038 8
      vertex 41.4571 27.7007 8
    endloop
  endfacet
  facet normal 0 0 1
    outer loop
      vertex 48.902 -9.7272 8
      vertex 33.2094 -6.60576 8
      vertex 47.713 -14.4736 8
    endloop
  endfacet
  facet normal 0 0 1
    outer loop
      vertex 28.1536 18.8116 8
      vertex 41.4571 27.7007 8
      vertex 38.5423 31.6308 8
    endloop
  endfacet
  facet normal -0 0 1
    outer loop
      vertex 32.402 -9.82904 8
      vertex 47.713 -14.4736 8
      vertex 33.2094 -6.60576 8
    endloop
  endfacet
  facet normal 0 0 1
    outer loop
      vertex 26.1741 21.4806 8
      vertex 38.5423 31.6308 8
      vertex 35.2563 35.2563 8
    endloop
  endfacet
  facet normal 0 0 1
    outer loop
      vertex 47.713 -14.4736 8
      vertex 32.402 -9.82904 8
      vertex 46.0646 -19.0806 8
    endloop
  endfacet
  facet normal -0 0 1
    outer loop
      vertex 31.2826 -12.9577 8
      vertex 46.0646 -19.0806 8
      vertex 32.402 -9.82904 8
    endloop
  endfacet
  facet normal 0 0 1
    outer loop
      vertex 49.6199 4.88713 8
      vertex 33.697 3.31886 8
      vertex 33.86 0 8
    endloop
  endfacet
  facet normal 0 0 1
    outer loop
      vertex 48.902 9.7272 8
      vertex 33.2094 6.60576 8
      vertex 33.697 3.31886 8
    endloop
  endfacet
  facet normal 0 0 1
    outer loop
      vertex 47.713 14.4736 8
      vertex 32.402 9.82904 8
      vertex 33.2094 6.60576 8
    endloop
  endfacet
  facet normal 0 0 1
    outer loop
      vertex 23.9426 23.9426 8
      vertex 35.2563 35.2563 8
      vertex 31.6308 38.5423 8
    endloop
  endfacet
  facet normal 0 0 1
    outer loop
      vertex 46.0646 19.0806 8
      vertex 31.2826 12.9577 8
      vertex 32.402 9.82904 8
    endloop
  endfacet
  facet normal 0 0 1
    outer loop
      vertex 43.9726 23.5038 8
      vertex 29.8619 15.9615 8
      vertex 31.2826 12.9577 8
    endloop
  endfacet
  facet normal 0 0 1
    outer loop
      vertex 41.4571 27.7007 8
      vertex 28.1536 18.8116 8
      vertex 29.8619 15.9615 8
    endloop
  endfacet
  facet normal 0 0 1
    outer loop
      vertex 21.4806 26.1741 8
      vertex 31.6308 38.5423 8
      vertex 27.7007 41.4571 8
    endloop
  endfacet
  facet normal 0 0 1
    outer loop
      vertex 38.5423 31.6308 8
      vertex 26.1741 21.4806 8
      vertex 28.1536 18.8116 8
    endloop
  endfacet
  facet normal 0 0 1
    outer loop
      vertex 35.2563 35.2563 8
      vertex 23.9426 23.9426 8
      vertex 26.1741 21.4806 8
    endloop
  endfacet
  facet normal 0 0 1
    outer loop
      vertex 18.8116 28.1536 8
      vertex 27.7007 41.4571 8
      vertex 23.5038 43.9726 8
    endloop
  endfacet
  facet normal 0 0 1
    outer loop
      vertex 31.6308 38.5423 8
      vertex 21.4806 26.1741 8
      vertex 23.9426 23.9426 8
    endloop
  endfacet
  facet normal 0 0 1
    outer loop
      vertex 15.9615 29.8619 8
      vertex 23.5038 43.9726 8
      vertex 19.0806 46.0646 8
    endloop
  endfacet
  facet normal 0 0 1
    outer loop
      vertex 27.7007 41.4571 8
      vertex 18.8116 28.1536 8
      vertex 21.4806 26.1741 8
    endloop
  endfacet
  facet normal 0 0 1
    outer loop
      vertex 23.5038 43.9726 8
      vertex 15.9615 29.8619 8
      vertex 18.8116 28.1536 8
    endloop
  endfacet
  facet normal 0 0 1
    outer loop
      vertex 12.9577 31.2826 8
      vertex 19.0806 46.0646 8
      vertex 14.4736 47.713 8
    endloop
  endfacet
  facet normal 0 0 1
    outer loop
      vertex 19.0806 46.0646 8
      vertex 12.9577 31.2826 8
      vertex 15.9615 29.8619 8
    endloop
  endfacet
  facet normal 0 0 1
    outer loop
      vertex 14.4736 47.713 8
      vertex 9.82904 32.402 8
      vertex 12.9577 31.2826 8
    endloop
  endfacet
  facet normal 0 0 1
    outer loop
      vertex 9.7272 48.902 8
      vertex 9.82904 32.402 8
      vertex 14.4736 47.713 8
    endloop
  endfacet
  facet normal 0 0 1
    outer loop
      vertex 9.7272 48.902 8
      vertex 6.60576 33.2094 8
      vertex 9.82904 32.402 8
    endloop
  endfacet
  facet normal 0 0 1
    outer loop
      vertex 4.88713 49.6199 8
      vertex 6.60576 33.2094 8
      vertex 9.7272 48.902 8
    endloop
  endfacet
  facet normal 0 0 1
    outer loop
      vertex 4.88713 49.6199 8
      vertex 3.31886 33.697 8
      vertex 6.60576 33.2094 8
    endloop
  endfacet
  facet normal 0 0 1
    outer loop
      vertex 0 49.86 8
      vertex 3.31886 33.697 8
      vertex 4.88713 49.6199 8
    endloop
  endfacet
  facet normal 0 0 1
    outer loop
      vertex 0 49.86 8
      vertex 0 33.86 8
      vertex 3.31886 33.697 8
    endloop
  endfacet
  facet normal 0 0 1
    outer loop
      vertex 0 49.86 8
      vertex -3.31886 33.697 8
      vertex 0 33.86 8
    endloop
  endfacet
  facet normal -0 0 1
    outer loop
      vertex -4.88713 49.6199 8
      vertex -3.31886 33.697 8
      vertex 0 49.86 8
    endloop
  endfacet
  facet normal 0 0 1
    outer loop
      vertex -4.88713 49.6199 8
      vertex -6.60576 33.2094 8
      vertex -3.31886 33.697 8
    endloop
  endfacet
  facet normal -0 0 1
    outer loop
      vertex -9.7272 48.902 8
      vertex -6.60576 33.2094 8
      vertex -4.88713 49.6199 8
    endloop
  endfacet
  facet normal 0 0 1
    outer loop
      vertex -9.7272 48.902 8
      vertex -9.82904 32.402 8
      vertex -6.60576 33.2094 8
    endloop
  endfacet
  facet normal -0 0 1
    outer loop
      vertex -14.4736 47.713 8
      vertex -9.82904 32.402 8
      vertex -9.7272 48.902 8
    endloop
  endfacet
  facet normal 0 0 1
    outer loop
      vertex -9.82904 32.402 8
      vertex -14.4736 47.713 8
      vertex -12.9577 31.2826 8
    endloop
  endfacet
  facet normal -0 0 1
    outer loop
      vertex -19.0806 46.0646 8
      vertex -12.9577 31.2826 8
      vertex -14.4736 47.713 8
    endloop
  endfacet
  facet normal 0 0 1
    outer loop
      vertex -12.9577 31.2826 8
      vertex -19.0806 46.0646 8
      vertex -15.9615 29.8619 8
    endloop
  endfacet
  facet normal -0 0 1
    outer loop
      vertex -23.5038 43.9726 8
      vertex -15.9615 29.8619 8
      vertex -19.0806 46.0646 8
    endloop
  endfacet
  facet normal 0 0 1
    outer loop
      vertex -15.9615 29.8619 8
      vertex -23.5038 43.9726 8
      vertex -18.8116 28.1536 8
    endloop
  endfacet
  facet normal -0 0 1
    outer loop
      vertex -27.7007 41.4571 8
      vertex -18.8116 28.1536 8
      vertex -23.5038 43.9726 8
    endloop
  endfacet
  facet normal 0 0 1
    outer loop
      vertex -18.8116 28.1536 8
      vertex -27.7007 41.4571 8
      vertex -21.4806 26.1741 8
    endloop
  endfacet
  facet normal -0 0 1
    outer loop
      vertex -31.6308 38.5423 8
      vertex -21.4806 26.1741 8
      vertex -27.7007 41.4571 8
    endloop
  endfacet
  facet normal 0 0 1
    outer loop
      vertex -21.4806 26.1741 8
      vertex -31.6308 38.5423 8
      vertex -23.9426 23.9426 8
    endloop
  endfacet
  facet normal -0 0 1
    outer loop
      vertex -35.2563 35.2563 8
      vertex -23.9426 23.9426 8
      vertex -31.6308 38.5423 8
    endloop
  endfacet
  facet normal 0 0 1
    outer loop
      vertex -23.9426 23.9426 8
      vertex -35.2563 35.2563 8
      vertex -26.1741 21.4806 8
    endloop
  endfacet
  facet normal -0 0 1
    outer loop
      vertex -38.5423 31.6308 8
      vertex -26.1741 21.4806 8
      vertex -35.2563 35.2563 8
    endloop
  endfacet
  facet normal 0 0 1
    outer loop
      vertex -26.1741 21.4806 8
      vertex -38.5423 31.6308 8
      vertex -28.1536 18.8116 8
    endloop
  endfacet
  facet normal -0 0 1
    outer loop
      vertex -41.4571 27.7007 8
      vertex -28.1536 18.8116 8
      vertex -38.5423 31.6308 8
    endloop
  endfacet
  facet normal 0 0 1
    outer loop
      vertex -28.1536 18.8116 8
      vertex -41.4571 27.7007 8
      vertex -29.8619 15.9615 8
    endloop
  endfacet
  facet normal -0 0 1
    outer loop
      vertex -43.9726 23.5038 8
      vertex -29.8619 15.9615 8
      vertex -41.4571 27.7007 8
    endloop
  endfacet
  facet normal -0 0 1
    outer loop
      vertex -46.0646 19.0806 8
      vertex -31.2826 12.9577 8
      vertex -43.9726 23.5038 8
    endloop
  endfacet
  facet normal 0 0 1
    outer loop
      vertex -29.8619 15.9615 8
      vertex -43.9726 23.5038 8
      vertex -31.2826 12.9577 8
    endloop
  endfacet
  facet normal 0 0 1
    outer loop
      vertex 46.0646 -19.0806 8
      vertex 31.2826 -12.9577 8
      vertex 43.9726 -23.5038 8
    endloop
  endfacet
  facet normal -0 0 1
    outer loop
      vertex 29.8619 -15.9615 8
      vertex 43.9726 -23.5038 8
      vertex 31.2826 -12.9577 8
    endloop
  endfacet
  facet normal 0 0 1
    outer loop
      vertex 43.9726 -23.5038 8
      vertex 29.8619 -15.9615 8
      vertex 41.4571 -27.7007 8
    endloop
  endfacet
  facet normal -0 0 1
    outer loop
      vertex 28.1536 -18.8116 8
      vertex 41.4571 -27.7007 8
      vertex 29.8619 -15.9615 8
    endloop
  endfacet
  facet normal 0 0 1
    outer loop
      vertex 41.4571 -27.7007 8
      vertex 28.1536 -18.8116 8
      vertex 38.5423 -31.6308 8
    endloop
  endfacet
  facet normal -0 0 1
    outer loop
      vertex 26.1741 -21.4806 8
      vertex 38.5423 -31.6308 8
      vertex 28.1536 -18.8116 8
    endloop
  endfacet
  facet normal 0 0 1
    outer loop
      vertex 38.5423 -31.6308 8
      vertex 26.1741 -21.4806 8
      vertex 35.2563 -35.2563 8
    endloop
  endfacet
  facet normal -0 0 1
    outer loop
      vertex 23.9426 -23.9426 8
      vertex 35.2563 -35.2563 8
      vertex 26.1741 -21.4806 8
    endloop
  endfacet
  facet normal 0 0 1
    outer loop
      vertex 35.2563 -35.2563 8
      vertex 23.9426 -23.9426 8
      vertex 31.6308 -38.5423 8
    endloop
  endfacet
  facet normal -0 0 1
    outer loop
      vertex 21.4806 -26.1741 8
      vertex 31.6308 -38.5423 8
      vertex 23.9426 -23.9426 8
    endloop
  endfacet
  facet normal 0 0 1
    outer loop
      vertex 31.6308 -38.5423 8
      vertex 21.4806 -26.1741 8
      vertex 27.7007 -41.4571 8
    endloop
  endfacet
  facet normal -0 0 1
    outer loop
      vertex 18.8116 -28.1536 8
      vertex 27.7007 -41.4571 8
      vertex 21.4806 -26.1741 8
    endloop
  endfacet
  facet normal 0 0 1
    outer loop
      vertex 27.7007 -41.4571 8
      vertex 18.8116 -28.1536 8
      vertex 23.5038 -43.9726 8
    endloop
  endfacet
  facet normal -0 0 1
    outer loop
      vertex 15.9615 -29.8619 8
      vertex 23.5038 -43.9726 8
      vertex 18.8116 -28.1536 8
    endloop
  endfacet
  facet normal 0 0 1
    outer loop
      vertex 23.5038 -43.9726 8
      vertex 15.9615 -29.8619 8
      vertex 19.0806 -46.0646 8
    endloop
  endfacet
  facet normal -0 0 1
    outer loop
      vertex 12.9577 -31.2826 8
      vertex 19.0806 -46.0646 8
      vertex 15.9615 -29.8619 8
    endloop
  endfacet
  facet normal 0 0 1
    outer loop
      vertex 19.0806 -46.0646 8
      vertex 12.9577 -31.2826 8
      vertex 14.4736 -47.713 8
    endloop
  endfacet
  facet normal -0 0 1
    outer loop
      vertex 9.82904 -32.402 8
      vertex 14.4736 -47.713 8
      vertex 12.9577 -31.2826 8
    endloop
  endfacet
  facet normal 0 0 1
    outer loop
      vertex 9.82904 -32.402 8
      vertex 9.7272 -48.902 8
      vertex 14.4736 -47.713 8
    endloop
  endfacet
  facet normal -0 0 1
    outer loop
      vertex 6.60576 -33.2094 8
      vertex 9.7272 -48.902 8
      vertex 9.82904 -32.402 8
    endloop
  endfacet
  facet normal 0 0 1
    outer loop
      vertex 6.60576 -33.2094 8
      vertex 4.88713 -49.6199 8
      vertex 9.7272 -48.902 8
    endloop
  endfacet
  facet normal -0 0 1
    outer loop
      vertex 3.31886 -33.697 8
      vertex 4.88713 -49.6199 8
      vertex 6.60576 -33.2094 8
    endloop
  endfacet
  facet normal -0 0 1
    outer loop
      vertex 0 -33.86 8
      vertex 4.88713 -49.6199 8
      vertex 3.31886 -33.697 8
    endloop
  endfacet
  facet normal 0 0 1
    outer loop
      vertex 0 -33.86 8
      vertex 0 -49.86 8
      vertex 4.88713 -49.6199 8
    endloop
  endfacet
  facet normal 0 0 1
    outer loop
      vertex -3.31886 -33.697 8
      vertex 0 -49.86 8
      vertex 0 -33.86 8
    endloop
  endfacet
  facet normal 0 0 1
    outer loop
      vertex -3.31886 -33.697 8
      vertex -4.88713 -49.6199 8
      vertex 0 -49.86 8
    endloop
  endfacet
  facet normal 0 0 1
    outer loop
      vertex -6.60576 -33.2094 8
      vertex -4.88713 -49.6199 8
      vertex -3.31886 -33.697 8
    endloop
  endfacet
  facet normal 0 0 1
    outer loop
      vertex -6.60576 -33.2094 8
      vertex -9.7272 -48.902 8
      vertex -4.88713 -49.6199 8
    endloop
  endfacet
  facet normal 0 0 1
    outer loop
      vertex -9.82904 -32.402 8
      vertex -9.7272 -48.902 8
      vertex -6.60576 -33.2094 8
    endloop
  endfacet
  facet normal 0 0 1
    outer loop
      vertex -14.4736 -47.713 8
      vertex -9.82904 -32.402 8
      vertex -12.9577 -31.2826 8
    endloop
  endfacet
  facet normal 0 0 1
    outer loop
      vertex -9.82904 -32.402 8
      vertex -14.4736 -47.713 8
      vertex -9.7272 -48.902 8
    endloop
  endfacet
  facet normal 0 0 1
    outer loop
      vertex -19.0806 -46.0646 8
      vertex -12.9577 -31.2826 8
      vertex -15.9615 -29.8619 8
    endloop
  endfacet
  facet normal 0 0 1
    outer loop
      vertex -23.5038 -43.9726 8
      vertex -15.9615 -29.8619 8
      vertex -18.8116 -28.1536 8
    endloop
  endfacet
  facet normal 0 0 1
    outer loop
      vertex -12.9577 -31.2826 8
      vertex -19.0806 -46.0646 8
      vertex -14.4736 -47.713 8
    endloop
  endfacet
  facet normal 0 0 1
    outer loop
      vertex -27.7007 -41.4571 8
      vertex -18.8116 -28.1536 8
      vertex -21.4806 -26.1741 8
    endloop
  endfacet
  facet normal 0 0 1
    outer loop
      vertex -15.9615 -29.8619 8
      vertex -23.5038 -43.9726 8
      vertex -19.0806 -46.0646 8
    endloop
  endfacet
  facet normal 0 0 1
    outer loop
      vertex -31.6308 -38.5423 8
      vertex -21.4806 -26.1741 8
      vertex -23.9426 -23.9426 8
    endloop
  endfacet
  facet normal 0 0 1
    outer loop
      vertex -35.2563 -35.2563 8
      vertex -23.9426 -23.9426 8
      vertex -26.1741 -21.4806 8
    endloop
  endfacet
  facet normal 0 0 1
    outer loop
      vertex -18.8116 -28.1536 8
      vertex -27.7007 -41.4571 8
      vertex -23.5038 -43.9726 8
    endloop
  endfacet
  facet normal 0 0 1
    outer loop
      vertex -38.5423 -31.6308 8
      vertex -26.1741 -21.4806 8
      vertex -28.1536 -18.8116 8
    endloop
  endfacet
  facet normal 0 0 1
    outer loop
      vertex -41.4571 -27.7007 8
      vertex -28.1536 -18.8116 8
      vertex -29.8619 -15.9615 8
    endloop
  endfacet
  facet normal 0 0 1
    outer loop
      vertex -43.9726 -23.5038 8
      vertex -29.8619 -15.9615 8
      vertex -31.2826 -12.9577 8
    endloop
  endfacet
  facet normal 0 0 1
    outer loop
      vertex -21.4806 -26.1741 8
      vertex -31.6308 -38.5423 8
      vertex -27.7007 -41.4571 8
    endloop
  endfacet
  facet normal 0 0 1
    outer loop
      vertex -46.0646 -19.0806 8
      vertex -31.2826 -12.9577 8
      vertex -32.402 -9.82904 8
    endloop
  endfacet
  facet normal 0 0 1
    outer loop
      vertex -47.713 -14.4736 8
      vertex -32.402 -9.82904 8
      vertex -33.2094 -6.60576 8
    endloop
  endfacet
  facet normal 0 0 1
    outer loop
      vertex -48.902 -9.7272 8
      vertex -33.2094 -6.60576 8
      vertex -33.697 -3.31886 8
    endloop
  endfacet
  facet normal 0 0 1
    outer loop
      vertex -23.9426 -23.9426 8
      vertex -35.2563 -35.2563 8
      vertex -31.6308 -38.5423 8
    endloop
  endfacet
  facet normal 0 0 1
    outer loop
      vertex -49.6199 -4.88713 8
      vertex -33.697 -3.31886 8
      vertex -33.86 0 8
    endloop
  endfacet
  facet normal 0 0 1
    outer loop
      vertex -31.2826 12.9577 8
      vertex -46.0646 19.0806 8
      vertex -32.402 9.82904 8
    endloop
  endfacet
  facet normal -0 0 1
    outer loop
      vertex -47.713 14.4736 8
      vertex -32.402 9.82904 8
      vertex -46.0646 19.0806 8
    endloop
  endfacet
  facet normal 0 0 1
    outer loop
      vertex -26.1741 -21.4806 8
      vertex -38.5423 -31.6308 8
      vertex -35.2563 -35.2563 8
    endloop
  endfacet
  facet normal 0 0 1
    outer loop
      vertex -32.402 9.82904 8
      vertex -47.713 14.4736 8
      vertex -33.2094 6.60576 8
    endloop
  endfacet
  facet normal 0 0 1
    outer loop
      vertex -28.1536 -18.8116 8
      vertex -41.4571 -27.7007 8
      vertex -38.5423 -31.6308 8
    endloop
  endfacet
  facet normal -0 0 1
    outer loop
      vertex -48.902 9.7272 8
      vertex -33.2094 6.60576 8
      vertex -47.713 14.4736 8
    endloop
  endfacet
  facet normal 0 0 1
    outer loop
      vertex -29.8619 -15.9615 8
      vertex -43.9726 -23.5038 8
      vertex -41.4571 -27.7007 8
    endloop
  endfacet
  facet normal 0 0 1
    outer loop
      vertex -33.2094 6.60576 8
      vertex -48.902 9.7272 8
      vertex -33.697 3.31886 8
    endloop
  endfacet
  facet normal 0 0 1
    outer loop
      vertex -31.2826 -12.9577 8
      vertex -46.0646 -19.0806 8
      vertex -43.9726 -23.5038 8
    endloop
  endfacet
  facet normal -0 0 1
    outer loop
      vertex -49.6199 4.88713 8
      vertex -33.697 3.31886 8
      vertex -48.902 9.7272 8
    endloop
  endfacet
  facet normal 0 0 1
    outer loop
      vertex -32.402 -9.82904 8
      vertex -47.713 -14.4736 8
      vertex -46.0646 -19.0806 8
    endloop
  endfacet
  facet normal 0 0 1
    outer loop
      vertex -33.697 3.31886 8
      vertex -49.6199 4.88713 8
      vertex -33.86 0 8
    endloop
  endfacet
  facet normal 0 0 1
    outer loop
      vertex -33.2094 -6.60576 8
      vertex -48.902 -9.7272 8
      vertex -47.713 -14.4736 8
    endloop
  endfacet
  facet normal 0 0 1
    outer loop
      vertex -49.86 0 8
      vertex -33.86 0 8
      vertex -49.6199 4.88713 8
    endloop
  endfacet
  facet normal 0 0 1
    outer loop
      vertex -33.697 -3.31886 8
      vertex -49.6199 -4.88713 8
      vertex -48.902 -9.7272 8
    endloop
  endfacet
  facet normal 0 0 1
    outer loop
      vertex -33.86 0 8
      vertex -49.86 0 8
      vertex -49.6199 -4.88713 8
    endloop
  endfacet
  facet normal 0 0 -1
    outer loop
      vertex 33.86 0 0
      vertex 49.86 0 0
      vertex 49.6199 -4.88713 0
    endloop
  endfacet
  facet normal 0 0 -1
    outer loop
      vertex 33.697 -3.31886 0
      vertex 49.6199 -4.88713 0
      vertex 48.902 -9.7272 0
    endloop
  endfacet
  facet normal 0 0 -1
    outer loop
      vertex 49.86 0 0
      vertex 33.86 0 0
      vertex 49.6199 4.88713 0
    endloop
  endfacet
  facet normal 0 0 -1
    outer loop
      vertex 33.2094 -6.60576 0
      vertex 48.902 -9.7272 0
      vertex 47.713 -14.4736 0
    endloop
  endfacet
  facet normal 0 0 -1
    outer loop
      vertex 33.697 3.31886 0
      vertex 49.6199 4.88713 0
      vertex 33.86 0 0
    endloop
  endfacet
  facet normal 0 0 -1
    outer loop
      vertex 32.402 -9.82904 0
      vertex 47.713 -14.4736 0
      vertex 46.0646 -19.0806 0
    endloop
  endfacet
  facet normal -0 0 -1
    outer loop
      vertex 49.6199 4.88713 0
      vertex 33.697 3.31886 0
      vertex 48.902 9.7272 0
    endloop
  endfacet
  facet normal 0 0 -1
    outer loop
      vertex 31.2826 -12.9577 0
      vertex 46.0646 -19.0806 0
      vertex 43.9726 -23.5038 0
    endloop
  endfacet
  facet normal 0 0 -1
    outer loop
      vertex 33.2094 6.60576 0
      vertex 48.902 9.7272 0
      vertex 33.697 3.31886 0
    endloop
  endfacet
  facet normal 0 0 -1
    outer loop
      vertex 29.8619 -15.9615 0
      vertex 43.9726 -23.5038 0
      vertex 41.4571 -27.7007 0
    endloop
  endfacet
  facet normal -0 0 -1
    outer loop
      vertex 48.902 9.7272 0
      vertex 33.2094 6.60576 0
      vertex 47.713 14.4736 0
    endloop
  endfacet
  facet normal 0 0 -1
    outer loop
      vertex 28.1536 -18.8116 0
      vertex 41.4571 -27.7007 0
      vertex 38.5423 -31.6308 0
    endloop
  endfacet
  facet normal 0 0 -1
    outer loop
      vertex 32.402 9.82904 0
      vertex 47.713 14.4736 0
      vertex 33.2094 6.60576 0
    endloop
  endfacet
  facet normal 0 0 -1
    outer loop
      vertex 26.1741 -21.4806 0
      vertex 38.5423 -31.6308 0
      vertex 35.2563 -35.2563 0
    endloop
  endfacet
  facet normal -0 0 -1
    outer loop
      vertex 47.713 14.4736 0
      vertex 32.402 9.82904 0
      vertex 46.0646 19.0806 0
    endloop
  endfacet
  facet normal 0 0 -1
    outer loop
      vertex 31.2826 12.9577 0
      vertex 46.0646 19.0806 0
      vertex 32.402 9.82904 0
    endloop
  endfacet
  facet normal 0 0 -1
    outer loop
      vertex 49.6199 -4.88713 0
      vertex 33.697 -3.31886 0
      vertex 33.86 0 0
    endloop
  endfacet
  facet normal 0 0 -1
    outer loop
      vertex 48.902 -9.7272 0
      vertex 33.2094 -6.60576 0
      vertex 33.697 -3.31886 0
    endloop
  endfacet
  facet normal 0 0 -1
    outer loop
      vertex 47.713 -14.4736 0
      vertex 32.402 -9.82904 0
      vertex 33.2094 -6.60576 0
    endloop
  endfacet
  facet normal 0 0 -1
    outer loop
      vertex 23.9426 -23.9426 0
      vertex 35.2563 -35.2563 0
      vertex 31.6308 -38.5423 0
    endloop
  endfacet
  facet normal 0 0 -1
    outer loop
      vertex 46.0646 -19.0806 0
      vertex 31.2826 -12.9577 0
      vertex 32.402 -9.82904 0
    endloop
  endfacet
  facet normal 0 0 -1
    outer loop
      vertex 43.9726 -23.5038 0
      vertex 29.8619 -15.9615 0
      vertex 31.2826 -12.9577 0
    endloop
  endfacet
  facet normal 0 0 -1
    outer loop
      vertex 41.4571 -27.7007 0
      vertex 28.1536 -18.8116 0
      vertex 29.8619 -15.9615 0
    endloop
  endfacet
  facet normal 0 0 -1
    outer loop
      vertex 21.4806 -26.1741 0
      vertex 31.6308 -38.5423 0
      vertex 27.7007 -41.4571 0
    endloop
  endfacet
  facet normal 0 0 -1
    outer loop
      vertex 38.5423 -31.6308 0
      vertex 26.1741 -21.4806 0
      vertex 28.1536 -18.8116 0
    endloop
  endfacet
  facet normal 0 0 -1
    outer loop
      vertex 35.2563 -35.2563 0
      vertex 23.9426 -23.9426 0
      vertex 26.1741 -21.4806 0
    endloop
  endfacet
  facet normal 0 0 -1
    outer loop
      vertex 18.8116 -28.1536 0
      vertex 27.7007 -41.4571 0
      vertex 23.5038 -43.9726 0
    endloop
  endfacet
  facet normal 0 0 -1
    outer loop
      vertex 31.6308 -38.5423 0
      vertex 21.4806 -26.1741 0
      vertex 23.9426 -23.9426 0
    endloop
  endfacet
  facet normal 0 0 -1
    outer loop
      vertex 15.9615 -29.8619 0
      vertex 23.5038 -43.9726 0
      vertex 19.0806 -46.0646 0
    endloop
  endfacet
  facet normal 0 0 -1
    outer loop
      vertex 27.7007 -41.4571 0
      vertex 18.8116 -28.1536 0
      vertex 21.4806 -26.1741 0
    endloop
  endfacet
  facet normal 0 0 -1
    outer loop
      vertex 23.5038 -43.9726 0
      vertex 15.9615 -29.8619 0
      vertex 18.8116 -28.1536 0
    endloop
  endfacet
  facet normal 0 0 -1
    outer loop
      vertex 12.9577 -31.2826 0
      vertex 19.0806 -46.0646 0
      vertex 14.4736 -47.713 0
    endloop
  endfacet
  facet normal 0 0 -1
    outer loop
      vertex 19.0806 -46.0646 0
      vertex 12.9577 -31.2826 0
      vertex 15.9615 -29.8619 0
    endloop
  endfacet
  facet normal 0 0 -1
    outer loop
      vertex 14.4736 -47.713 0
      vertex 9.82904 -32.402 0
      vertex 12.9577 -31.2826 0
    endloop
  endfacet
  facet normal 0 0 -1
    outer loop
      vertex 9.7272 -48.902 0
      vertex 9.82904 -32.402 0
      vertex 14.4736 -47.713 0
    endloop
  endfacet
  facet normal 0 0 -1
    outer loop
      vertex 9.7272 -48.902 0
      vertex 6.60576 -33.2094 0
      vertex 9.82904 -32.402 0
    endloop
  endfacet
  facet normal 0 0 -1
    outer loop
      vertex 4.88713 -49.6199 0
      vertex 6.60576 -33.2094 0
      vertex 9.7272 -48.902 0
    endloop
  endfacet
  facet normal 0 0 -1
    outer loop
      vertex 4.88713 -49.6199 0
      vertex 3.31886 -33.697 0
      vertex 6.60576 -33.2094 0
    endloop
  endfacet
  facet normal 0 0 -1
    outer loop
      vertex 0 -49.86 0
      vertex 3.31886 -33.697 0
      vertex 4.88713 -49.6199 0
    endloop
  endfacet
  facet normal 0 0 -1
    outer loop
      vertex 0 -49.86 0
      vertex 0 -33.86 0
      vertex 3.31886 -33.697 0
    endloop
  endfacet
  facet normal 0 0 -1
    outer loop
      vertex 0 -49.86 0
      vertex -3.31886 -33.697 0
      vertex 0 -33.86 0
    endloop
  endfacet
  facet normal 0 0 -1
    outer loop
      vertex -4.88713 -49.6199 0
      vertex -3.31886 -33.697 0
      vertex 0 -49.86 0
    endloop
  endfacet
  facet normal 0 0 -1
    outer loop
      vertex -4.88713 -49.6199 0
      vertex -6.60576 -33.2094 0
      vertex -3.31886 -33.697 0
    endloop
  endfacet
  facet normal 0 0 -1
    outer loop
      vertex -9.7272 -48.902 0
      vertex -6.60576 -33.2094 0
      vertex -4.88713 -49.6199 0
    endloop
  endfacet
  facet normal 0 0 -1
    outer loop
      vertex -9.7272 -48.902 0
      vertex -9.82904 -32.402 0
      vertex -6.60576 -33.2094 0
    endloop
  endfacet
  facet normal 0 0 -1
    outer loop
      vertex -14.4736 -47.713 0
      vertex -9.82904 -32.402 0
      vertex -9.7272 -48.902 0
    endloop
  endfacet
  facet normal -0 0 -1
    outer loop
      vertex -9.82904 -32.402 0
      vertex -14.4736 -47.713 0
      vertex -12.9577 -31.2826 0
    endloop
  endfacet
  facet normal 0 0 -1
    outer loop
      vertex -19.0806 -46.0646 0
      vertex -12.9577 -31.2826 0
      vertex -14.4736 -47.713 0
    endloop
  endfacet
  facet normal -0 0 -1
    outer loop
      vertex -12.9577 -31.2826 0
      vertex -19.0806 -46.0646 0
      vertex -15.9615 -29.8619 0
    endloop
  endfacet
  facet normal 0 0 -1
    outer loop
      vertex -23.5038 -43.9726 0
      vertex -15.9615 -29.8619 0
      vertex -19.0806 -46.0646 0
    endloop
  endfacet
  facet normal -0 0 -1
    outer loop
      vertex -15.9615 -29.8619 0
      vertex -23.5038 -43.9726 0
      vertex -18.8116 -28.1536 0
    endloop
  endfacet
  facet normal 0 0 -1
    outer loop
      vertex -27.7007 -41.4571 0
      vertex -18.8116 -28.1536 0
      vertex -23.5038 -43.9726 0
    endloop
  endfacet
  facet normal -0 0 -1
    outer loop
      vertex -18.8116 -28.1536 0
      vertex -27.7007 -41.4571 0
      vertex -21.4806 -26.1741 0
    endloop
  endfacet
  facet normal 0 0 -1
    outer loop
      vertex -31.6308 -38.5423 0
      vertex -21.4806 -26.1741 0
      vertex -27.7007 -41.4571 0
    endloop
  endfacet
  facet normal -0 0 -1
    outer loop
      vertex -21.4806 -26.1741 0
      vertex -31.6308 -38.5423 0
      vertex -23.9426 -23.9426 0
    endloop
  endfacet
  facet normal 0 0 -1
    outer loop
      vertex -35.2563 -35.2563 0
      vertex -23.9426 -23.9426 0
      vertex -31.6308 -38.5423 0
    endloop
  endfacet
  facet normal -0 0 -1
    outer loop
      vertex -23.9426 -23.9426 0
      vertex -35.2563 -35.2563 0
      vertex -26.1741 -21.4806 0
    endloop
  endfacet
  facet normal 0 0 -1
    outer loop
      vertex -38.5423 -31.6308 0
      vertex -26.1741 -21.4806 0
      vertex -35.2563 -35.2563 0
    endloop
  endfacet
  facet normal -0 0 -1
    outer loop
      vertex -26.1741 -21.4806 0
      vertex -38.5423 -31.6308 0
      vertex -28.1536 -18.8116 0
    endloop
  endfacet
  facet normal 0 0 -1
    outer loop
      vertex -41.4571 -27.7007 0
      vertex -28.1536 -18.8116 0
      vertex -38.5423 -31.6308 0
    endloop
  endfacet
  facet normal -0 0 -1
    outer loop
      vertex -28.1536 -18.8116 0
      vertex -41.4571 -27.7007 0
      vertex -29.8619 -15.9615 0
    endloop
  endfacet
  facet normal 0 0 -1
    outer loop
      vertex -43.9726 -23.5038 0
      vertex -29.8619 -15.9615 0
      vertex -41.4571 -27.7007 0
    endloop
  endfacet
  facet normal 0 0 -1
    outer loop
      vertex -46.0646 -19.0806 0
      vertex -31.2826 -12.9577 0
      vertex -43.9726 -23.5038 0
    endloop
  endfacet
  facet normal -0 0 -1
    outer loop
      vertex -29.8619 -15.9615 0
      vertex -43.9726 -23.5038 0
      vertex -31.2826 -12.9577 0
    endloop
  endfacet
  facet normal -0 0 -1
    outer loop
      vertex 46.0646 19.0806 0
      vertex 31.2826 12.9577 0
      vertex 43.9726 23.5038 0
    endloop
  endfacet
  facet normal 0 0 -1
    outer loop
      vertex 29.8619 15.9615 0
      vertex 43.9726 23.5038 0
      vertex 31.2826 12.9577 0
    endloop
  endfacet
  facet normal -0 0 -1
    outer loop
      vertex 43.9726 23.5038 0
      vertex 29.8619 15.9615 0
      vertex 41.4571 27.7007 0
    endloop
  endfacet
  facet normal 0 0 -1
    outer loop
      vertex 28.1536 18.8116 0
      vertex 41.4571 27.7007 0
      vertex 29.8619 15.9615 0
    endloop
  endfacet
  facet normal -0 0 -1
    outer loop
      vertex 41.4571 27.7007 0
      vertex 28.1536 18.8116 0
      vertex 38.5423 31.6308 0
    endloop
  endfacet
  facet normal 0 0 -1
    outer loop
      vertex 26.1741 21.4806 0
      vertex 38.5423 31.6308 0
      vertex 28.1536 18.8116 0
    endloop
  endfacet
  facet normal -0 0 -1
    outer loop
      vertex 38.5423 31.6308 0
      vertex 26.1741 21.4806 0
      vertex 35.2563 35.2563 0
    endloop
  endfacet
  facet normal 0 0 -1
    outer loop
      vertex 23.9426 23.9426 0
      vertex 35.2563 35.2563 0
      vertex 26.1741 21.4806 0
    endloop
  endfacet
  facet normal -0 0 -1
    outer loop
      vertex 35.2563 35.2563 0
      vertex 23.9426 23.9426 0
      vertex 31.6308 38.5423 0
    endloop
  endfacet
  facet normal 0 0 -1
    outer loop
      vertex 21.4806 26.1741 0
      vertex 31.6308 38.5423 0
      vertex 23.9426 23.9426 0
    endloop
  endfacet
  facet normal -0 0 -1
    outer loop
      vertex 31.6308 38.5423 0
      vertex 21.4806 26.1741 0
      vertex 27.7007 41.4571 0
    endloop
  endfacet
  facet normal 0 0 -1
    outer loop
      vertex 18.8116 28.1536 0
      vertex 27.7007 41.4571 0
      vertex 21.4806 26.1741 0
    endloop
  endfacet
  facet normal -0 0 -1
    outer loop
      vertex 27.7007 41.4571 0
      vertex 18.8116 28.1536 0
      vertex 23.5038 43.9726 0
    endloop
  endfacet
  facet normal 0 0 -1
    outer loop
      vertex 15.9615 29.8619 0
      vertex 23.5038 43.9726 0
      vertex 18.8116 28.1536 0
    endloop
  endfacet
  facet normal -0 0 -1
    outer loop
      vertex 23.5038 43.9726 0
      vertex 15.9615 29.8619 0
      vertex 19.0806 46.0646 0
    endloop
  endfacet
  facet normal 0 0 -1
    outer loop
      vertex 12.9577 31.2826 0
      vertex 19.0806 46.0646 0
      vertex 15.9615 29.8619 0
    endloop
  endfacet
  facet normal -0 0 -1
    outer loop
      vertex 19.0806 46.0646 0
      vertex 12.9577 31.2826 0
      vertex 14.4736 47.713 0
    endloop
  endfacet
  facet normal 0 0 -1
    outer loop
      vertex 9.82904 32.402 0
      vertex 14.4736 47.713 0
      vertex 12.9577 31.2826 0
    endloop
  endfacet
  facet normal 0 0 -1
    outer loop
      vertex 9.82904 32.402 0
      vertex 9.7272 48.902 0
      vertex 14.4736 47.713 0
    endloop
  endfacet
  facet normal 0 0 -1
    outer loop
      vertex 6.60576 33.2094 0
      vertex 9.7272 48.902 0
      vertex 9.82904 32.402 0
    endloop
  endfacet
  facet normal 0 0 -1
    outer loop
      vertex 6.60576 33.2094 0
      vertex 4.88713 49.6199 0
      vertex 9.7272 48.902 0
    endloop
  endfacet
  facet normal 0 0 -1
    outer loop
      vertex 3.31886 33.697 0
      vertex 4.88713 49.6199 0
      vertex 6.60576 33.2094 0
    endloop
  endfacet
  facet normal 0 0 -1
    outer loop
      vertex 0 33.86 0
      vertex 4.88713 49.6199 0
      vertex 3.31886 33.697 0
    endloop
  endfacet
  facet normal 0 0 -1
    outer loop
      vertex 0 33.86 0
      vertex 0 49.86 0
      vertex 4.88713 49.6199 0
    endloop
  endfacet
  facet normal 0 0 -1
    outer loop
      vertex -3.31886 33.697 0
      vertex 0 49.86 0
      vertex 0 33.86 0
    endloop
  endfacet
  facet normal 0 0 -1
    outer loop
      vertex -3.31886 33.697 0
      vertex -4.88713 49.6199 0
      vertex 0 49.86 0
    endloop
  endfacet
  facet normal 0 0 -1
    outer loop
      vertex -6.60576 33.2094 0
      vertex -4.88713 49.6199 0
      vertex -3.31886 33.697 0
    endloop
  endfacet
  facet normal 0 0 -1
    outer loop
      vertex -6.60576 33.2094 0
      vertex -9.7272 48.902 0
      vertex -4.88713 49.6199 0
    endloop
  endfacet
  facet normal 0 0 -1
    outer loop
      vertex -9.82904 32.402 0
      vertex -9.7272 48.902 0
      vertex -6.60576 33.2094 0
    endloop
  endfacet
  facet normal 0 0 -1
    outer loop
      vertex -14.4736 47.713 0
      vertex -9.82904 32.402 0
      vertex -12.9577 31.2826 0
    endloop
  endfacet
  facet normal 0 0 -1
    outer loop
      vertex -9.82904 32.402 0
      vertex -14.4736 47.713 0
      vertex -9.7272 48.902 0
    endloop
  endfacet
  facet normal 0 0 -1
    outer loop
      vertex -19.0806 46.0646 0
      vertex -12.9577 31.2826 0
      vertex -15.9615 29.8619 0
    endloop
  endfacet
  facet normal 0 0 -1
    outer loop
      vertex -23.5038 43.9726 0
      vertex -15.9615 29.8619 0
      vertex -18.8116 28.1536 0
    endloop
  endfacet
  facet normal 0 0 -1
    outer loop
      vertex -12.9577 31.2826 0
      vertex -19.0806 46.0646 0
      vertex -14.4736 47.713 0
    endloop
  endfacet
  facet normal 0 0 -1
    outer loop
      vertex -27.7007 41.4571 0
      vertex -18.8116 28.1536 0
      vertex -21.4806 26.1741 0
    endloop
  endfacet
  facet normal 0 0 -1
    outer loop
      vertex -15.9615 29.8619 0
      vertex -23.5038 43.9726 0
      vertex -19.0806 46.0646 0
    endloop
  endfacet
  facet normal 0 0 -1
    outer loop
      vertex -31.6308 38.5423 0
      vertex -21.4806 26.1741 0
      vertex -23.9426 23.9426 0
    endloop
  endfacet
  facet normal 0 0 -1
    outer loop
      vertex -35.2563 35.2563 0
      vertex -23.9426 23.9426 0
      vertex -26.1741 21.4806 0
    endloop
  endfacet
  facet normal 0 0 -1
    outer loop
      vertex -18.8116 28.1536 0
      vertex -27.7007 41.4571 0
      vertex -23.5038 43.9726 0
    endloop
  endfacet
  facet normal 0 0 -1
    outer loop
      vertex -38.5423 31.6308 0
      vertex -26.1741 21.4806 0
      vertex -28.1536 18.8116 0
    endloop
  endfacet
  facet normal 0 0 -1
    outer loop
      vertex -41.4571 27.7007 0
      vertex -28.1536 18.8116 0
      vertex -29.8619 15.9615 0
    endloop
  endfacet
  facet normal 0 0 -1
    outer loop
      vertex -43.9726 23.5038 0
      vertex -29.8619 15.9615 0
      vertex -31.2826 12.9577 0
    endloop
  endfacet
  facet normal 0 0 -1
    outer loop
      vertex -21.4806 26.1741 0
      vertex -31.6308 38.5423 0
      vertex -27.7007 41.4571 0
    endloop
  endfacet
  facet normal 0 0 -1
    outer loop
      vertex -46.0646 19.0806 0
      vertex -31.2826 12.9577 0
      vertex -32.402 9.82904 0
    endloop
  endfacet
  facet normal 0 0 -1
    outer loop
      vertex -47.713 14.4736 0
      vertex -32.402 9.82904 0
      vertex -33.2094 6.60576 0
    endloop
  endfacet
  facet normal 0 0 -1
    outer loop
      vertex -48.902 9.7272 0
      vertex -33.2094 6.60576 0
      vertex -33.697 3.31886 0
    endloop
  endfacet
  facet normal 0 0 -1
    outer loop
      vertex -23.9426 23.9426 0
      vertex -35.2563 35.2563 0
      vertex -31.6308 38.5423 0
    endloop
  endfacet
  facet normal 0 0 -1
    outer loop
      vertex -49.6199 4.88713 0
      vertex -33.697 3.31886 0
      vertex -33.86 0 0
    endloop
  endfacet
  facet normal -0 0 -1
    outer loop
      vertex -31.2826 -12.9577 0
      vertex -46.0646 -19.0806 0
      vertex -32.402 -9.82904 0
    endloop
  endfacet
  facet normal 0 0 -1
    outer loop
      vertex -47.713 -14.4736 0
      vertex -32.402 -9.82904 0
      vertex -46.0646 -19.0806 0
    endloop
  endfacet
  facet normal 0 0 -1
    outer loop
      vertex -26.1741 21.4806 0
      vertex -38.5423 31.6308 0
      vertex -35.2563 35.2563 0
    endloop
  endfacet
  facet normal -0 0 -1
    outer loop
      vertex -32.402 -9.82904 0
      vertex -47.713 -14.4736 0
      vertex -33.2094 -6.60576 0
    endloop
  endfacet
  facet normal 0 0 -1
    outer loop
      vertex -28.1536 18.8116 0
      vertex -41.4571 27.7007 0
      vertex -38.5423 31.6308 0
    endloop
  endfacet
  facet normal 0 0 -1
    outer loop
      vertex -48.902 -9.7272 0
      vertex -33.2094 -6.60576 0
      vertex -47.713 -14.4736 0
    endloop
  endfacet
  facet normal 0 0 -1
    outer loop
      vertex -29.8619 15.9615 0
      vertex -43.9726 23.5038 0
      vertex -41.4571 27.7007 0
    endloop
  endfacet
  facet normal -0 0 -1
    outer loop
      vertex -33.2094 -6.60576 0
      vertex -48.902 -9.7272 0
      vertex -33.697 -3.31886 0
    endloop
  endfacet
  facet normal 0 0 -1
    outer loop
      vertex -31.2826 12.9577 0
      vertex -46.0646 19.0806 0
      vertex -43.9726 23.5038 0
    endloop
  endfacet
  facet normal 0 0 -1
    outer loop
      vertex -49.6199 -4.88713 0
      vertex -33.697 -3.31886 0
      vertex -48.902 -9.7272 0
    endloop
  endfacet
  facet normal 0 0 -1
    outer loop
      vertex -32.402 9.82904 0
      vertex -47.713 14.4736 0
      vertex -46.0646 19.0806 0
    endloop
  endfacet
  facet normal -0 0 -1
    outer loop
      vertex -33.697 -3.31886 0
      vertex -49.6199 -4.88713 0
      vertex -33.86 0 0
    endloop
  endfacet
  facet normal 0 0 -1
    outer loop
      vertex -33.2094 6.60576 0
      vertex -48.902 9.7272 0
      vertex -47.713 14.4736 0
    endloop
  endfacet
  facet normal 0 0 -1
    outer loop
      vertex -49.86 0 0
      vertex -33.86 0 0
      vertex -49.6199 -4.88713 0
    endloop
  endfacet
  facet normal 0 0 -1
    outer loop
      vertex -33.697 3.31886 0
      vertex -49.6199 4.88713 0
      vertex -48.902 9.7272 0
    endloop
  endfacet
  facet normal 0 0 -1
    outer loop
      vertex -33.86 0 0
      vertex -49.86 0 0
      vertex -49.6199 4.88713 0
    endloop
  endfacet
  facet normal -0.595704 -0.803204 0
    outer loop
      vertex -31.6308 -38.5423 0
      vertex -27.7007 -41.4571 8
      vertex -31.6308 -38.5423 8
    endloop
  endfacet
  facet normal -0.595704 -0.803204 -0
    outer loop
      vertex -27.7007 -41.4571 8
      vertex -31.6308 -38.5423 0
      vertex -27.7007 -41.4571 0
    endloop
  endfacet
  facet normal 0.242997 0.970027 -0
    outer loop
      vertex 14.4736 47.713 0
      vertex 9.7272 48.902 8
      vertex 14.4736 47.713 8
    endloop
  endfacet
  facet normal 0.242997 0.970027 0
    outer loop
      vertex 9.7272 48.902 8
      vertex 14.4736 47.713 0
      vertex 9.7272 48.902 0
    endloop
  endfacet
  facet normal -0.989175 -0.146741 0
    outer loop
      vertex 33.697 3.31886 0
      vertex 33.2094 6.60576 8
      vertex 33.2094 6.60576 0
    endloop
  endfacet
  facet normal -0.989175 -0.146741 0
    outer loop
      vertex 33.2094 6.60576 8
      vertex 33.697 3.31886 0
      vertex 33.697 3.31886 8
    endloop
  endfacet
  facet normal -0.998796 -0.0490541 0
    outer loop
      vertex 33.86 0 0
      vertex 33.697 3.31886 8
      vertex 33.697 3.31886 0
    endloop
  endfacet
  facet normal -0.998796 -0.0490541 0
    outer loop
      vertex 33.697 3.31886 8
      vertex 33.86 0 0
      vertex 33.86 0 8
    endloop
  endfacet
  facet normal -0.970031 -0.242983 0
    outer loop
      vertex 33.2094 6.60576 0
      vertex 32.402 9.82904 8
      vertex 32.402 9.82904 0
    endloop
  endfacet
  facet normal -0.970031 -0.242983 0
    outer loop
      vertex 32.402 9.82904 8
      vertex 33.2094 6.60576 0
      vertex 33.2094 6.60576 8
    endloop
  endfacet
  facet normal -0.803203 -0.595706 0
    outer loop
      vertex 28.1536 18.8116 0
      vertex 26.1741 21.4806 8
      vertex 26.1741 21.4806 0
    endloop
  endfacet
  facet normal -0.803203 -0.595706 0
    outer loop
      vertex 26.1741 21.4806 8
      vertex 28.1536 18.8116 0
      vertex 28.1536 18.8116 8
    endloop
  endfacet
  facet normal -0.595706 -0.803203 0
    outer loop
      vertex 18.8116 28.1536 0
      vertex 21.4806 26.1741 8
      vertex 18.8116 28.1536 8
    endloop
  endfacet
  facet normal -0.595706 -0.803203 -0
    outer loop
      vertex 21.4806 26.1741 8
      vertex 18.8116 28.1536 0
      vertex 21.4806 26.1741 0
    endloop
  endfacet
  facet normal -0.998796 0.0490541 0
    outer loop
      vertex 33.697 -3.31886 0
      vertex 33.86 0 8
      vertex 33.86 0 0
    endloop
  endfacet
  facet normal -0.998796 0.0490541 0
    outer loop
      vertex 33.86 0 8
      vertex 33.697 -3.31886 0
      vertex 33.697 -3.31886 8
    endloop
  endfacet
  facet normal 0.970031 -0.242983 0
    outer loop
      vertex -33.2094 6.60576 8
      vertex -32.402 9.82904 0
      vertex -32.402 9.82904 8
    endloop
  endfacet
  facet normal 0.970031 -0.242983 0
    outer loop
      vertex -32.402 9.82904 0
      vertex -33.2094 6.60576 8
      vertex -33.2094 6.60576 0
    endloop
  endfacet
  facet normal 0.146741 -0.989175 0
    outer loop
      vertex -6.60576 33.2094 0
      vertex -3.31886 33.697 8
      vertex -6.60576 33.2094 8
    endloop
  endfacet
  facet normal 0.146741 -0.989175 0
    outer loop
      vertex -3.31886 33.697 8
      vertex -6.60576 33.2094 0
      vertex -3.31886 33.697 0
    endloop
  endfacet
  facet normal 0.0490541 -0.998796 0
    outer loop
      vertex -3.31886 33.697 0
      vertex 0 33.86 8
      vertex -3.31886 33.697 8
    endloop
  endfacet
  facet normal 0.0490541 -0.998796 0
    outer loop
      vertex 0 33.86 8
      vertex -3.31886 33.697 0
      vertex 0 33.86 0
    endloop
  endfacet
  facet normal 0.242983 0.970031 -0
    outer loop
      vertex -6.60576 -33.2094 0
      vertex -9.82904 -32.402 8
      vertex -6.60576 -33.2094 8
    endloop
  endfacet
  facet normal 0.242983 0.970031 0
    outer loop
      vertex -9.82904 -32.402 8
      vertex -6.60576 -33.2094 0
      vertex -9.82904 -32.402 0
    endloop
  endfacet
  facet normal 0.941549 0.336876 0
    outer loop
      vertex -31.2826 -12.9577 8
      vertex -32.402 -9.82904 0
      vertex -32.402 -9.82904 8
    endloop
  endfacet
  facet normal 0.941549 0.336876 0
    outer loop
      vertex -32.402 -9.82904 0
      vertex -31.2826 -12.9577 8
      vertex -31.2826 -12.9577 0
    endloop
  endfacet
  facet normal -0.941549 -0.336876 0
    outer loop
      vertex 32.402 9.82904 0
      vertex 31.2826 12.9577 8
      vertex 31.2826 12.9577 0
    endloop
  endfacet
  facet normal -0.941549 -0.336876 0
    outer loop
      vertex 31.2826 12.9577 8
      vertex 32.402 9.82904 0
      vertex 32.402 9.82904 8
    endloop
  endfacet
  facet normal 0.989175 -0.146741 0
    outer loop
      vertex -33.697 3.31886 8
      vertex -33.2094 6.60576 0
      vertex -33.2094 6.60576 8
    endloop
  endfacet
  facet normal 0.989175 -0.146741 0
    outer loop
      vertex -33.2094 6.60576 0
      vertex -33.697 3.31886 8
      vertex -33.697 3.31886 0
    endloop
  endfacet
  facet normal 0.803203 0.595706 0
    outer loop
      vertex -26.1741 -21.4806 8
      vertex -28.1536 -18.8116 0
      vertex -28.1536 -18.8116 8
    endloop
  endfacet
  facet normal 0.803203 0.595706 0
    outer loop
      vertex -28.1536 -18.8116 0
      vertex -26.1741 -21.4806 8
      vertex -26.1741 -21.4806 0
    endloop
  endfacet
  facet normal 0.671571 -0.74094 0
    outer loop
      vertex -23.9426 23.9426 0
      vertex -21.4806 26.1741 8
      vertex -23.9426 23.9426 8
    endloop
  endfacet
  facet normal 0.671571 -0.74094 0
    outer loop
      vertex -21.4806 26.1741 8
      vertex -23.9426 23.9426 0
      vertex -21.4806 26.1741 0
    endloop
  endfacet
  facet normal 0.803203 -0.595706 0
    outer loop
      vertex -28.1536 18.8116 8
      vertex -26.1741 21.4806 0
      vertex -26.1741 21.4806 8
    endloop
  endfacet
  facet normal 0.803203 -0.595706 0
    outer loop
      vertex -26.1741 21.4806 0
      vertex -28.1536 18.8116 8
      vertex -28.1536 18.8116 0
    endloop
  endfacet
  facet normal -0.336876 0.941549 0
    outer loop
      vertex 12.9577 -31.2826 0
      vertex 9.82904 -32.402 8
      vertex 12.9577 -31.2826 8
    endloop
  endfacet
  facet normal -0.336876 0.941549 0
    outer loop
      vertex 9.82904 -32.402 8
      vertex 12.9577 -31.2826 0
      vertex 9.82904 -32.402 0
    endloop
  endfacet
  facet normal -0.941549 0.336876 0
    outer loop
      vertex 31.2826 -12.9577 0
      vertex 32.402 -9.82904 8
      vertex 32.402 -9.82904 0
    endloop
  endfacet
  facet normal -0.941549 0.336876 0
    outer loop
      vertex 32.402 -9.82904 8
      vertex 31.2826 -12.9577 0
      vertex 31.2826 -12.9577 8
    endloop
  endfacet
  facet normal 0.970031 0.242983 0
    outer loop
      vertex -32.402 -9.82904 8
      vertex -33.2094 -6.60576 0
      vertex -33.2094 -6.60576 8
    endloop
  endfacet
  facet normal 0.970031 0.242983 0
    outer loop
      vertex -33.2094 -6.60576 0
      vertex -32.402 -9.82904 8
      vertex -32.402 -9.82904 0
    endloop
  endfacet
  facet normal -0.242983 -0.970031 0
    outer loop
      vertex 6.60576 33.2094 0
      vertex 9.82904 32.402 8
      vertex 6.60576 33.2094 8
    endloop
  endfacet
  facet normal -0.242983 -0.970031 -0
    outer loop
      vertex 9.82904 32.402 8
      vertex 6.60576 33.2094 0
      vertex 9.82904 32.402 0
    endloop
  endfacet
  facet normal -0.803203 0.595706 0
    outer loop
      vertex 26.1741 -21.4806 0
      vertex 28.1536 -18.8116 8
      vertex 28.1536 -18.8116 0
    endloop
  endfacet
  facet normal -0.803203 0.595706 0
    outer loop
      vertex 28.1536 -18.8116 8
      vertex 26.1741 -21.4806 0
      vertex 26.1741 -21.4806 8
    endloop
  endfacet
  facet normal 0.998796 0.0490541 0
    outer loop
      vertex -33.697 -3.31886 8
      vertex -33.86 0 0
      vertex -33.86 0 8
    endloop
  endfacet
  facet normal 0.998796 0.0490541 0
    outer loop
      vertex -33.86 0 0
      vertex -33.697 -3.31886 8
      vertex -33.697 -3.31886 0
    endloop
  endfacet
  facet normal 0.427557 0.903988 -0
    outer loop
      vertex -12.9577 -31.2826 0
      vertex -15.9615 -29.8619 8
      vertex -12.9577 -31.2826 8
    endloop
  endfacet
  facet normal 0.427557 0.903988 0
    outer loop
      vertex -15.9615 -29.8619 8
      vertex -12.9577 -31.2826 0
      vertex -15.9615 -29.8619 0
    endloop
  endfacet
  facet normal -0.427557 -0.903988 0
    outer loop
      vertex 12.9577 31.2826 0
      vertex 15.9615 29.8619 8
      vertex 12.9577 31.2826 8
    endloop
  endfacet
  facet normal -0.427557 -0.903988 -0
    outer loop
      vertex 15.9615 29.8619 8
      vertex 12.9577 31.2826 0
      vertex 15.9615 29.8619 0
    endloop
  endfacet
  facet normal 0.857727 -0.514106 0
    outer loop
      vertex -29.8619 15.9615 8
      vertex -28.1536 18.8116 0
      vertex -28.1536 18.8116 8
    endloop
  endfacet
  facet normal 0.857727 -0.514106 0
    outer loop
      vertex -28.1536 18.8116 0
      vertex -29.8619 15.9615 8
      vertex -29.8619 15.9615 0
    endloop
  endfacet
  facet normal 0.857727 0.514106 0
    outer loop
      vertex -28.1536 -18.8116 8
      vertex -29.8619 -15.9615 0
      vertex -29.8619 -15.9615 8
    endloop
  endfacet
  facet normal 0.857727 0.514106 0
    outer loop
      vertex -29.8619 -15.9615 0
      vertex -28.1536 -18.8116 8
      vertex -28.1536 -18.8116 0
    endloop
  endfacet
  facet normal 0.671571 0.74094 -0
    outer loop
      vertex -21.4806 -26.1741 0
      vertex -23.9426 -23.9426 8
      vertex -21.4806 -26.1741 8
    endloop
  endfacet
  facet normal 0.671571 0.74094 0
    outer loop
      vertex -23.9426 -23.9426 8
      vertex -21.4806 -26.1741 0
      vertex -23.9426 -23.9426 0
    endloop
  endfacet
  facet normal -0.336876 -0.941549 0
    outer loop
      vertex 9.82904 32.402 0
      vertex 12.9577 31.2826 8
      vertex 9.82904 32.402 8
    endloop
  endfacet
  facet normal -0.336876 -0.941549 -0
    outer loop
      vertex 12.9577 31.2826 8
      vertex 9.82904 32.402 0
      vertex 12.9577 31.2826 0
    endloop
  endfacet
  facet normal -0.903988 -0.427557 0
    outer loop
      vertex 31.2826 12.9577 0
      vertex 29.8619 15.9615 8
      vertex 29.8619 15.9615 0
    endloop
  endfacet
  facet normal -0.903988 -0.427557 0
    outer loop
      vertex 29.8619 15.9615 8
      vertex 31.2826 12.9577 0
      vertex 31.2826 12.9577 8
    endloop
  endfacet
  facet normal 0.336876 -0.941549 0
    outer loop
      vertex -12.9577 31.2826 0
      vertex -9.82904 32.402 8
      vertex -12.9577 31.2826 8
    endloop
  endfacet
  facet normal 0.336876 -0.941549 0
    outer loop
      vertex -9.82904 32.402 8
      vertex -12.9577 31.2826 0
      vertex -9.82904 32.402 0
    endloop
  endfacet
  facet normal -0.514106 -0.857727 0
    outer loop
      vertex 15.9615 29.8619 0
      vertex 18.8116 28.1536 8
      vertex 15.9615 29.8619 8
    endloop
  endfacet
  facet normal -0.514106 -0.857727 -0
    outer loop
      vertex 18.8116 28.1536 8
      vertex 15.9615 29.8619 0
      vertex 18.8116 28.1536 0
    endloop
  endfacet
  facet normal 0.74094 0.671571 0
    outer loop
      vertex -23.9426 -23.9426 8
      vertex -26.1741 -21.4806 0
      vertex -26.1741 -21.4806 8
    endloop
  endfacet
  facet normal 0.74094 0.671571 0
    outer loop
      vertex -26.1741 -21.4806 0
      vertex -23.9426 -23.9426 8
      vertex -23.9426 -23.9426 0
    endloop
  endfacet
  facet normal -0.74094 0.671571 0
    outer loop
      vertex 23.9426 -23.9426 0
      vertex 26.1741 -21.4806 8
      vertex 26.1741 -21.4806 0
    endloop
  endfacet
  facet normal -0.74094 0.671571 0
    outer loop
      vertex 26.1741 -21.4806 8
      vertex 23.9426 -23.9426 0
      vertex 23.9426 -23.9426 8
    endloop
  endfacet
  facet normal -0.146741 0.989175 0
    outer loop
      vertex 6.60576 -33.2094 0
      vertex 3.31886 -33.697 8
      vertex 6.60576 -33.2094 8
    endloop
  endfacet
  facet normal -0.146741 0.989175 0
    outer loop
      vertex 3.31886 -33.697 8
      vertex 6.60576 -33.2094 0
      vertex 3.31886 -33.697 0
    endloop
  endfacet
  facet normal -0.242983 0.970031 0
    outer loop
      vertex 9.82904 -32.402 0
      vertex 6.60576 -33.2094 8
      vertex 9.82904 -32.402 8
    endloop
  endfacet
  facet normal -0.242983 0.970031 0
    outer loop
      vertex 6.60576 -33.2094 8
      vertex 9.82904 -32.402 0
      vertex 6.60576 -33.2094 0
    endloop
  endfacet
  facet normal -0.514106 0.857727 0
    outer loop
      vertex 18.8116 -28.1536 0
      vertex 15.9615 -29.8619 8
      vertex 18.8116 -28.1536 8
    endloop
  endfacet
  facet normal -0.514106 0.857727 0
    outer loop
      vertex 15.9615 -29.8619 8
      vertex 18.8116 -28.1536 0
      vertex 15.9615 -29.8619 0
    endloop
  endfacet
  facet normal -0.427557 0.903988 0
    outer loop
      vertex 15.9615 -29.8619 0
      vertex 12.9577 -31.2826 8
      vertex 15.9615 -29.8619 8
    endloop
  endfacet
  facet normal -0.427557 0.903988 0
    outer loop
      vertex 12.9577 -31.2826 8
      vertex 15.9615 -29.8619 0
      vertex 12.9577 -31.2826 0
    endloop
  endfacet
  facet normal 0.903988 0.427557 0
    outer loop
      vertex -29.8619 -15.9615 8
      vertex -31.2826 -12.9577 0
      vertex -31.2826 -12.9577 8
    endloop
  endfacet
  facet normal 0.903988 0.427557 0
    outer loop
      vertex -31.2826 -12.9577 0
      vertex -29.8619 -15.9615 8
      vertex -29.8619 -15.9615 0
    endloop
  endfacet
  facet normal 0.146741 0.989175 -0
    outer loop
      vertex -3.31886 -33.697 0
      vertex -6.60576 -33.2094 8
      vertex -3.31886 -33.697 8
    endloop
  endfacet
  facet normal 0.146741 0.989175 0
    outer loop
      vertex -6.60576 -33.2094 8
      vertex -3.31886 -33.697 0
      vertex -6.60576 -33.2094 0
    endloop
  endfacet
  facet normal -0.671571 0.74094 0
    outer loop
      vertex 23.9426 -23.9426 0
      vertex 21.4806 -26.1741 8
      vertex 23.9426 -23.9426 8
    endloop
  endfacet
  facet normal -0.671571 0.74094 0
    outer loop
      vertex 21.4806 -26.1741 8
      vertex 23.9426 -23.9426 0
      vertex 21.4806 -26.1741 0
    endloop
  endfacet
  facet normal -0.0490541 -0.998796 0
    outer loop
      vertex 0 33.86 0
      vertex 3.31886 33.697 8
      vertex 0 33.86 8
    endloop
  endfacet
  facet normal -0.0490541 -0.998796 -0
    outer loop
      vertex 3.31886 33.697 8
      vertex 0 33.86 0
      vertex 3.31886 33.697 0
    endloop
  endfacet
  facet normal -0.0490541 0.998796 0
    outer loop
      vertex 3.31886 -33.697 0
      vertex 0 -33.86 8
      vertex 3.31886 -33.697 8
    endloop
  endfacet
  facet normal -0.0490541 0.998796 0
    outer loop
      vertex 0 -33.86 8
      vertex 3.31886 -33.697 0
      vertex 0 -33.86 0
    endloop
  endfacet
  facet normal 0.514106 -0.857727 0
    outer loop
      vertex -18.8116 28.1536 0
      vertex -15.9615 29.8619 8
      vertex -18.8116 28.1536 8
    endloop
  endfacet
  facet normal 0.514106 -0.857727 0
    outer loop
      vertex -15.9615 29.8619 8
      vertex -18.8116 28.1536 0
      vertex -15.9615 29.8619 0
    endloop
  endfacet
  facet normal 0.242983 -0.970031 0
    outer loop
      vertex -9.82904 32.402 0
      vertex -6.60576 33.2094 8
      vertex -9.82904 32.402 8
    endloop
  endfacet
  facet normal 0.242983 -0.970031 0
    outer loop
      vertex -6.60576 33.2094 8
      vertex -9.82904 32.402 0
      vertex -6.60576 33.2094 0
    endloop
  endfacet
  facet normal -0.970031 0.242983 0
    outer loop
      vertex 32.402 -9.82904 0
      vertex 33.2094 -6.60576 8
      vertex 33.2094 -6.60576 0
    endloop
  endfacet
  facet normal -0.970031 0.242983 0
    outer loop
      vertex 33.2094 -6.60576 8
      vertex 32.402 -9.82904 0
      vertex 32.402 -9.82904 8
    endloop
  endfacet
  facet normal -0.857727 -0.514106 0
    outer loop
      vertex 29.8619 15.9615 0
      vertex 28.1536 18.8116 8
      vertex 28.1536 18.8116 0
    endloop
  endfacet
  facet normal -0.857727 -0.514106 0
    outer loop
      vertex 28.1536 18.8116 8
      vertex 29.8619 15.9615 0
      vertex 29.8619 15.9615 8
    endloop
  endfacet
  facet normal 0.595706 0.803203 -0
    outer loop
      vertex -18.8116 -28.1536 0
      vertex -21.4806 -26.1741 8
      vertex -18.8116 -28.1536 8
    endloop
  endfacet
  facet normal 0.595706 0.803203 0
    outer loop
      vertex -21.4806 -26.1741 8
      vertex -18.8116 -28.1536 0
      vertex -21.4806 -26.1741 0
    endloop
  endfacet
  facet normal 0.989175 0.146741 0
    outer loop
      vertex -33.2094 -6.60576 8
      vertex -33.697 -3.31886 0
      vertex -33.697 -3.31886 8
    endloop
  endfacet
  facet normal 0.989175 0.146741 0
    outer loop
      vertex -33.697 -3.31886 0
      vertex -33.2094 -6.60576 8
      vertex -33.2094 -6.60576 0
    endloop
  endfacet
  facet normal 0.427557 -0.903988 0
    outer loop
      vertex -15.9615 29.8619 0
      vertex -12.9577 31.2826 8
      vertex -15.9615 29.8619 8
    endloop
  endfacet
  facet normal 0.427557 -0.903988 0
    outer loop
      vertex -12.9577 31.2826 8
      vertex -15.9615 29.8619 0
      vertex -12.9577 31.2826 0
    endloop
  endfacet
  facet normal -0.989175 0.146741 0
    outer loop
      vertex 33.2094 -6.60576 0
      vertex 33.697 -3.31886 8
      vertex 33.697 -3.31886 0
    endloop
  endfacet
  facet normal -0.989175 0.146741 0
    outer loop
      vertex 33.697 -3.31886 8
      vertex 33.2094 -6.60576 0
      vertex 33.2094 -6.60576 8
    endloop
  endfacet
  facet normal -0.146741 -0.989175 0
    outer loop
      vertex 3.31886 33.697 0
      vertex 6.60576 33.2094 8
      vertex 3.31886 33.697 8
    endloop
  endfacet
  facet normal -0.146741 -0.989175 -0
    outer loop
      vertex 6.60576 33.2094 8
      vertex 3.31886 33.697 0
      vertex 6.60576 33.2094 0
    endloop
  endfacet
  facet normal 0.74094 -0.671571 0
    outer loop
      vertex -26.1741 21.4806 8
      vertex -23.9426 23.9426 0
      vertex -23.9426 23.9426 8
    endloop
  endfacet
  facet normal 0.74094 -0.671571 0
    outer loop
      vertex -23.9426 23.9426 0
      vertex -26.1741 21.4806 8
      vertex -26.1741 21.4806 0
    endloop
  endfacet
  facet normal 0.998796 -0.0490541 0
    outer loop
      vertex -33.86 0 8
      vertex -33.697 3.31886 0
      vertex -33.697 3.31886 8
    endloop
  endfacet
  facet normal 0.998796 -0.0490541 0
    outer loop
      vertex -33.697 3.31886 0
      vertex -33.86 0 8
      vertex -33.86 0 0
    endloop
  endfacet
  facet normal -0.671571 -0.74094 0
    outer loop
      vertex 21.4806 26.1741 0
      vertex 23.9426 23.9426 8
      vertex 21.4806 26.1741 8
    endloop
  endfacet
  facet normal -0.671571 -0.74094 -0
    outer loop
      vertex 23.9426 23.9426 8
      vertex 21.4806 26.1741 0
      vertex 23.9426 23.9426 0
    endloop
  endfacet
  facet normal -0.74094 -0.671571 0
    outer loop
      vertex 26.1741 21.4806 0
      vertex 23.9426 23.9426 8
      vertex 23.9426 23.9426 0
    endloop
  endfacet
  facet normal -0.74094 -0.671571 0
    outer loop
      vertex 23.9426 23.9426 8
      vertex 26.1741 21.4806 0
      vertex 26.1741 21.4806 8
    endloop
  endfacet
  facet normal -0.595706 0.803203 0
    outer loop
      vertex 21.4806 -26.1741 0
      vertex 18.8116 -28.1536 8
      vertex 21.4806 -26.1741 8
    endloop
  endfacet
  facet normal -0.595706 0.803203 0
    outer loop
      vertex 18.8116 -28.1536 8
      vertex 21.4806 -26.1741 0
      vertex 18.8116 -28.1536 0
    endloop
  endfacet
  facet normal 0.903988 -0.427557 0
    outer loop
      vertex -31.2826 12.9577 8
      vertex -29.8619 15.9615 0
      vertex -29.8619 15.9615 8
    endloop
  endfacet
  facet normal 0.903988 -0.427557 0
    outer loop
      vertex -29.8619 15.9615 0
      vertex -31.2826 12.9577 8
      vertex -31.2826 12.9577 0
    endloop
  endfacet
  facet normal -0.857727 0.514106 0
    outer loop
      vertex 28.1536 -18.8116 0
      vertex 29.8619 -15.9615 8
      vertex 29.8619 -15.9615 0
    endloop
  endfacet
  facet normal -0.857727 0.514106 0
    outer loop
      vertex 29.8619 -15.9615 8
      vertex 28.1536 -18.8116 0
      vertex 28.1536 -18.8116 8
    endloop
  endfacet
  facet normal 0.941549 -0.336876 0
    outer loop
      vertex -32.402 9.82904 8
      vertex -31.2826 12.9577 0
      vertex -31.2826 12.9577 8
    endloop
  endfacet
  facet normal 0.941549 -0.336876 0
    outer loop
      vertex -31.2826 12.9577 0
      vertex -32.402 9.82904 8
      vertex -32.402 9.82904 0
    endloop
  endfacet
  facet normal -0.903988 0.427557 0
    outer loop
      vertex 29.8619 -15.9615 0
      vertex 31.2826 -12.9577 8
      vertex 31.2826 -12.9577 0
    endloop
  endfacet
  facet normal -0.903988 0.427557 0
    outer loop
      vertex 31.2826 -12.9577 8
      vertex 29.8619 -15.9615 0
      vertex 29.8619 -15.9615 8
    endloop
  endfacet
  facet normal 0.0490541 0.998796 -0
    outer loop
      vertex 0 -33.86 0
      vertex -3.31886 -33.697 8
      vertex 0 -33.86 8
    endloop
  endfacet
  facet normal 0.0490541 0.998796 0
    outer loop
      vertex -3.31886 -33.697 8
      vertex 0 -33.86 0
      vertex -3.31886 -33.697 0
    endloop
  endfacet
  facet normal 0.595706 -0.803203 0
    outer loop
      vertex -21.4806 26.1741 0
      vertex -18.8116 28.1536 8
      vertex -21.4806 26.1741 8
    endloop
  endfacet
  facet normal 0.595706 -0.803203 0
    outer loop
      vertex -18.8116 28.1536 8
      vertex -21.4806 26.1741 0
      vertex -18.8116 28.1536 0
    endloop
  endfacet
  facet normal 0.514106 0.857727 -0
    outer loop
      vertex -15.9615 -29.8619 0
      vertex -18.8116 -28.1536 8
      vertex -15.9615 -29.8619 8
    endloop
  endfacet
  facet normal 0.514106 0.857727 0
    outer loop
      vertex -18.8116 -28.1536 8
      vertex -15.9615 -29.8619 0
      vertex -18.8116 -28.1536 0
    endloop
  endfacet
  facet normal 0.336876 0.941549 -0
    outer loop
      vertex -9.82904 -32.402 0
      vertex -12.9577 -31.2826 8
      vertex -9.82904 -32.402 8
    endloop
  endfacet
  facet normal 0.336876 0.941549 0
    outer loop
      vertex -12.9577 -31.2826 8
      vertex -9.82904 -32.402 0
      vertex -12.9577 -31.2826 0
    endloop
  endfacet
endsolid OpenSCAD_Model
